<svg width="29" height="29" viewBox="0 0 29 29" fill="none" xmlns="http://www.w3.org/2000/svg">
<path d="M14.5002 4.83325C15.782 4.83325 17.0114 5.34248 17.9178 6.2489C18.8243 7.15533 19.3335 8.38471 19.3335 9.66658C19.3335 10.9485 18.8243 12.1778 17.9178 13.0843C17.0114 13.9907 15.782 14.4999 14.5002 14.4999C13.2183 14.4999 11.9889 13.9907 11.0825 13.0843C10.1761 12.1778 9.66683 10.9485 9.66683 9.66658C9.66683 8.38471 10.1761 7.15533 11.0825 6.2489C11.9889 5.34248 13.2183 4.83325 14.5002 4.83325ZM14.5002 7.24992C13.8592 7.24992 13.2445 7.50453 12.7913 7.95774C12.3381 8.41096 12.0835 9.02565 12.0835 9.66658C12.0835 10.3075 12.3381 10.9222 12.7913 11.3754C13.2445 11.8286 13.8592 12.0833 14.5002 12.0833C15.1411 12.0833 15.7558 11.8286 16.209 11.3754C16.6622 10.9222 16.9168 10.3075 16.9168 9.66658C16.9168 9.02565 16.6622 8.41096 16.209 7.95774C15.7558 7.50453 15.1411 7.24992 14.5002 7.24992ZM14.5002 15.7083C17.7264 15.7083 24.1668 17.3153 24.1668 20.5416V24.1666H4.8335V20.5416C4.8335 17.3153 11.2739 15.7083 14.5002 15.7083ZM14.5002 18.0041C10.9114 18.0041 7.12933 19.7683 7.12933 20.5416V21.8708H21.871V20.5416C21.871 19.7683 18.0889 18.0041 14.5002 18.0041Z" fill="#1C2126"/>
</svg>
