<svg width="17" height="17" viewBox="0 0 17 17" fill="none" xmlns="http://www.w3.org/2000/svg">
<path d="M13.263 4.76573L13.2613 6.75906C13.2613 6.75906 11.9346 6.7646 11.9279 6.75793L11.9296 4.7646L9.92962 4.7629C9.92962 4.7629 9.93741 3.43624 9.93075 3.42957L11.9308 3.43127L11.9325 1.43127L13.2658 1.4324L13.2641 3.4324L15.2641 3.4341L15.263 4.76743L13.263 4.76573ZM11.2607 7.4307L11.2624 5.4307L9.26239 5.429L9.26409 3.429L3.93076 3.42447C3.19742 3.42385 2.59691 4.02334 2.59629 4.75667L2.5895 12.7567C2.58887 13.49 3.18836 14.0905 3.9217 14.0911L11.9217 14.0979C12.655 14.0986 13.2555 13.4991 13.2562 12.7657L13.2607 7.4324L11.2607 7.4307ZM3.92283 12.7578L5.92509 10.0928L7.25673 12.094L9.25899 9.429L11.9228 12.7646L3.92283 12.7578Z" fill="#B10000"/>
</svg>
