<svg width="29" height="15" viewBox="0 0 29 15" fill="none" xmlns="http://www.w3.org/2000/svg">
<path opacity="0.35" d="M22.8546 0.152544L3.81829 0.136376C2.13585 0.134947 0.770721 1.60741 0.769177 3.42521L0.762889 10.8288C0.761345 12.6466 2.12398 14.1213 3.80641 14.1228L22.8427 14.1389C24.5252 14.1404 25.8903 12.6679 25.8918 10.8501L25.8981 3.44656C25.8997 1.62875 24.537 0.153973 22.8546 0.152544Z" fill="#040404"/>
<path opacity="0.4" d="M27.0391 4.68164L27.0349 9.61816C27.4846 9.41404 27.8686 9.07109 28.1388 8.63226C28.409 8.19343 28.5534 7.67823 28.5538 7.15119C28.5543 6.62415 28.4108 6.10871 28.1414 5.66942C27.8719 5.23013 27.4885 4.88652 27.0391 4.68164" fill="#040404"/>
<path d="M22.0917 2.62017L4.57679 2.6053C3.73588 2.60458 3.05357 3.34054 3.0528 4.2491L3.04791 10.0088C3.04714 10.9173 3.7282 11.6545 4.5691 11.6552L22.084 11.67C22.9249 11.6708 23.6072 10.9348 23.608 10.0262L23.6129 4.26656C23.6136 3.358 22.9326 2.62089 22.0917 2.62017Z" fill="#040404"/>
</svg>
