<svg width="46" height="46" viewBox="0 0 46 46" fill="none" xmlns="http://www.w3.org/2000/svg">
<path d="M27.3125 8.625V10.6914L27.4473 10.9609L28.9297 14.375H16.4414L15.9922 15.0039L12.084 20.5293C11.2136 20.2598 10.2983 20.125 9.34375 20.125C4.19458 20.125 0 24.314 0 29.4688C0 34.6235 4.18897 38.8125 9.34375 38.8125C14.2515 38.8125 18.2664 34.9998 18.6426 30.1875H23.584L24.0332 29.5586L31.041 19.2266L31.9844 21.3828C29.1936 23.0056 27.3125 26.0322 27.3125 29.4688C27.3125 34.6011 31.5239 38.8125 36.6562 38.8125C41.7886 38.8125 46 34.6011 46 29.4688C46 24.3364 41.7886 20.125 36.6562 20.125C35.9656 20.125 35.2861 20.2036 34.6348 20.3496L30.7715 11.5H35.2188C35.6287 11.5 35.9375 11.8088 35.9375 12.2188C35.9375 12.6287 35.6287 12.9375 35.2188 12.9375V15.8125C37.1841 15.8125 38.8125 14.1841 38.8125 12.2188C38.8125 10.2534 37.1841 8.625 35.2188 8.625H27.3125ZM11.5 10.0625V12.9375H20.125L18.6875 10.0625H11.5ZM19.3613 17.25H28.9297L23.1348 25.7852L19.3613 17.25ZM16.8457 18.6875L20.6191 27.3125H8.625V30.1875H15.7227C15.3577 33.4106 12.6624 35.9375 9.34375 35.9375C5.77808 35.9375 2.875 33.0344 2.875 29.4688C2.875 25.9031 5.77808 23 9.34375 23C11.5842 23 13.572 24.1455 14.7344 25.875H17.9688C17.2781 24.2185 16.1438 22.7979 14.6895 21.7871L16.8457 18.6875ZM36.6562 23C40.2219 23 43.125 25.9031 43.125 29.4688C43.125 33.0344 40.2219 35.9375 36.6562 35.9375C33.0906 35.9375 30.1875 33.0344 30.1875 29.4688C30.1875 27.2058 31.3835 25.2349 33.1523 24.0781L36.0723 30.7715L38.6777 29.6035L35.8477 23.0898C36.1172 23.0562 36.3811 23 36.6562 23Z" fill="#B10000"/>
</svg>
