<svg width="15" height="15" viewBox="0 0 15 15" fill="none" xmlns="http://www.w3.org/2000/svg">
<path d="M12.5239 8.63204C12.5239 11.2679 10.4345 13.4048 7.85722 13.4048C5.27989 13.4048 3.19055 11.2679 3.19055 8.63204C3.19055 7.6706 3.47721 6.06076 4.35722 5.2381L5.55905 6.84054C5.72949 7.0678 6.11061 6.9428 6.12415 6.65905C6.19266 5.22359 6.50369 2.5205 7.85722 1.7381C7.85722 1.7381 12.5239 5.99613 12.5239 8.63204Z" stroke="black" stroke-width="0.875" stroke-linejoin="round"/>
<path d="M7.85734 11.6547C7.47432 11.6547 7.09505 11.5792 6.74118 11.4327C6.38731 11.2861 6.06578 11.0713 5.79495 10.8004C5.52411 10.5296 5.30927 10.208 5.16269 9.85418C5.01612 9.50032 4.94067 9.12104 4.94067 8.73802" stroke="black" stroke-width="0.875" stroke-linecap="round"/>
</svg>
