<svg width="25" height="25" viewBox="0 0 25 25" fill="none" xmlns="http://www.w3.org/2000/svg">
<path d="M14.7075 11.0493H10.7075V13.0493H14.7075V11.0493Z" fill="#656565"/>
<path fill-rule="evenodd" clip-rule="evenodd" d="M7.70752 5.04932V4.04932C7.70752 2.94476 8.60291 2.04932 9.70752 2.04932H15.7075C16.8121 2.04932 17.7075 2.94476 17.7075 4.04932V5.04932H20.7075C22.3644 5.04932 23.7075 6.39246 23.7075 8.04932V18.0493C23.7075 19.7062 22.3644 21.0493 20.7075 21.0493H4.70752C3.05066 21.0493 1.70752 19.7062 1.70752 18.0493V8.04932C1.70752 6.39246 3.05066 5.04932 4.70752 5.04932H7.70752ZM9.70752 4.04932H15.7075V5.04932H9.70752V4.04932ZM4.70752 7.04932C4.15527 7.04932 3.70752 7.49701 3.70752 8.04932V14.0493H21.7075V8.04932C21.7075 7.49701 21.2598 7.04932 20.7075 7.04932H4.70752ZM3.70752 18.0493V16.0493H21.7075V18.0493C21.7075 18.6016 21.2598 19.0493 20.7075 19.0493H4.70752C4.15527 19.0493 3.70752 18.6016 3.70752 18.0493Z" fill="#656565"/>
</svg>
