<svg width="20" height="14" viewBox="0 0 20 14" fill="none" xmlns="http://www.w3.org/2000/svg">
<path d="M18.6824 13.6849L17.5402 13.6839C17.2372 13.6836 16.9468 13.5534 16.7328 13.3217C16.5188 13.0901 16.3987 12.7761 16.399 12.4488L16.4081 1.75259C16.4083 1.42528 16.529 1.11148 16.7434 0.880217C16.9578 0.648954 17.2484 0.519177 17.5513 0.519434L18.6936 0.520404C18.9965 0.520662 19.2869 0.650933 19.5009 0.882559C19.7149 1.11418 19.835 1.42819 19.8347 1.7555L19.8257 12.4517C19.8254 12.779 19.7048 13.0928 19.4904 13.3241C19.276 13.5553 18.9853 13.6851 18.6824 13.6849ZM13.3516 13.6803L12.2094 13.6794C11.9065 13.6791 11.616 13.5488 11.402 13.3172C11.188 13.0856 11.0679 12.7716 11.0682 12.4443L11.0749 4.62853C11.0751 4.30121 11.1957 3.98741 11.4102 3.75615C11.6246 3.52489 11.9152 3.39511 12.2181 3.39537L13.3604 3.39634C13.6633 3.39659 13.9537 3.52686 14.1677 3.75849C14.3817 3.99012 14.5018 4.30412 14.5015 4.63144L14.4949 12.4472C14.4946 12.7743 14.3742 13.0879 14.16 13.3191C13.9459 13.5504 13.6555 13.6803 13.3528 13.6803L13.3516 13.6803ZM8.02086 13.6758L6.87863 13.6748C6.5757 13.6746 6.28528 13.5443 6.07127 13.3127C5.85725 13.0811 5.73718 12.7671 5.73746 12.4397L5.74165 7.50322C5.74193 7.17591 5.86254 6.86211 6.07694 6.63085C6.29135 6.39958 6.58199 6.26981 6.88492 6.27006L8.02715 6.27103C8.33009 6.27129 8.62051 6.40156 8.83452 6.63319C9.04853 6.86481 9.1686 7.17882 9.16833 7.50613L9.16413 12.4427C9.16386 12.77 9.04325 13.0838 8.82884 13.315C8.61444 13.5463 8.3238 13.6761 8.02086 13.6758ZM2.69124 13.6713L1.54901 13.6703C1.24608 13.6701 0.955657 13.5398 0.741645 13.3082C0.527633 13.0765 0.407558 12.7625 0.407836 12.4352L0.409933 9.96696C0.410211 9.63965 0.530818 9.32584 0.745224 9.09458C0.959629 8.86332 1.25027 8.73354 1.55321 8.7338L2.69543 8.73477C2.99837 8.73502 3.28879 8.8653 3.5028 9.09692C3.71681 9.32855 3.83689 9.64256 3.83661 9.96987L3.83451 12.4381C3.83423 12.7654 3.71363 13.0792 3.49922 13.3105C3.28481 13.5418 2.99417 13.6715 2.69124 13.6713Z" fill="#040404"/>
</svg>
