<svg width="20" height="20" viewBox="0 0 20 20" fill="none" xmlns="http://www.w3.org/2000/svg">
<path d="M18.4358 16.8723H16.5608C16.3122 16.8723 16.0737 16.7735 15.8979 16.5977C15.7221 16.4219 15.6233 16.1835 15.6233 15.9348V4.05981C15.6233 3.81117 15.7221 3.57272 15.8979 3.3969C16.0737 3.22109 16.3122 3.12231 16.5608 3.12231H18.4358C18.6844 3.12231 18.9229 3.22109 19.0987 3.3969C19.2745 3.57272 19.3733 3.81117 19.3733 4.05981V15.9348C19.3733 16.1835 19.2745 16.4219 19.0987 16.5977C18.9229 16.7735 18.6844 16.8723 18.4358 16.8723Z" fill="#FEFEFE"/>
<path d="M13.4359 16.8723H11.5609C11.3123 16.8723 11.0738 16.7735 10.898 16.5977C10.7222 16.4219 10.6234 16.1835 10.6234 15.9348V7.18481C10.6234 6.93617 10.7222 6.69772 10.898 6.5219C11.0738 6.34609 11.3123 6.24731 11.5609 6.24731H13.4359C13.6846 6.24731 13.923 6.34609 14.0988 6.5219C14.2746 6.69772 14.3734 6.93617 14.3734 7.18481V15.9348C14.3734 16.1835 14.2746 16.4219 14.0988 16.5977C13.923 16.7735 13.6846 16.8723 13.4359 16.8723Z" fill="#FEFEFE"/>
<path d="M8.43603 16.8723H6.56104C6.31239 16.8723 6.07394 16.7735 5.89812 16.5977C5.72231 16.4219 5.62354 16.1835 5.62354 15.9348V9.68481C5.62354 9.43617 5.72231 9.19772 5.89812 9.0219C6.07394 8.84609 6.31239 8.74731 6.56104 8.74731H8.43603C8.68468 8.74731 8.92313 8.84609 9.09895 9.0219C9.27476 9.19772 9.37353 9.43617 9.37353 9.68481V15.9348C9.37353 16.1835 9.27476 16.4219 9.09895 16.5977C8.92313 16.7735 8.68468 16.8723 8.43603 16.8723Z" fill="#FEFEFE"/>
<path d="M3.43628 16.8723H1.56128C1.31264 16.8723 1.07418 16.7735 0.898367 16.5977C0.722551 16.4219 0.623779 16.1835 0.623779 15.9348V12.1848C0.623779 11.9362 0.722551 11.6977 0.898367 11.5219C1.07418 11.3461 1.31264 11.2473 1.56128 11.2473H3.43628C3.68492 11.2473 3.92338 11.3461 4.09919 11.5219C4.27501 11.6977 4.37378 11.9362 4.37378 12.1848V15.9348C4.37378 16.1835 4.27501 16.4219 4.09919 16.5977C3.92338 16.7735 3.68492 16.8723 3.43628 16.8723Z" fill="#FEFEFE"/>
</svg>
