<svg width="40" height="42" viewBox="0 0 40 42" fill="none" xmlns="http://www.w3.org/2000/svg">
<path d="M33.7496 3.49811C32.6675 3.49763 31.6144 3.8572 30.7487 4.52276C29.8829 5.18832 29.2514 6.12392 28.9488 7.18893C28.6463 8.25394 28.6893 9.39082 29.0711 10.4287C29.453 11.4666 30.1532 12.3493 31.0665 12.9444L27.8039 24.6491C27.7032 24.6429 27.6019 24.6387 27.4996 24.6387C26.4241 24.6375 25.3772 24.9937 24.5158 25.654L18.4882 20.5053C18.7735 19.6375 18.8268 18.7071 18.6425 17.811C18.4581 16.9149 18.0429 16.0858 17.4399 15.41C16.837 14.7341 16.0684 14.2362 15.2141 13.9681C14.3598 13.6999 13.451 13.6713 12.5822 13.8852C11.7134 14.0991 10.9165 14.5477 10.2742 15.1844C9.63194 15.821 9.16783 16.6224 8.93017 17.5052C8.69251 18.3881 8.68998 19.32 8.92285 20.2042C9.15571 21.0883 9.61545 21.8924 10.2543 22.5327L6.71582 29.7868C6.56215 29.7721 6.40691 29.7637 6.24965 29.7637C5.05181 29.7622 3.89313 30.2008 2.98391 31.0002C2.07469 31.7995 1.47521 32.9065 1.29427 34.1202C1.11334 35.3339 1.36295 36.5738 1.99779 37.615C2.63263 38.6562 3.61063 39.4295 4.75427 39.7947C5.8979 40.1598 7.13136 40.0926 8.23076 39.6052C9.33016 39.1177 10.2226 38.2424 10.7461 37.1381C11.2697 36.0338 11.3896 34.7737 11.0841 33.5865C10.7786 32.3993 10.0679 31.3638 9.08113 30.6678L12.4249 23.814C13.2371 24.0437 14.0929 24.0587 14.9123 23.8577C15.7318 23.6567 16.4882 23.2461 17.111 22.6644L22.9469 27.6494C22.5506 28.5446 22.4138 29.5377 22.5529 30.5103C22.6919 31.4829 23.101 32.3941 23.7312 33.135C24.3614 33.876 25.1862 34.4156 26.1073 34.6894C27.0284 34.9632 28.0068 34.9597 28.926 34.6794C29.8453 34.399 30.6664 33.8536 31.2916 33.1082C31.9168 32.3628 32.3196 31.4488 32.4521 30.4752C32.5846 29.5016 32.4411 28.5095 32.0388 27.6172C31.6364 26.7248 30.9922 25.9699 30.1829 25.4425L33.4454 13.7377C33.5461 13.7439 33.6474 13.7481 33.7496 13.7481C35.0757 13.7481 36.3475 13.2082 37.2852 12.247C38.2229 11.2859 38.7496 9.98234 38.7496 8.62311C38.7496 7.26387 38.2229 5.96031 37.2852 4.99919C36.3475 4.03806 35.0757 3.49811 33.7496 3.49811ZM6.24965 37.4512C5.7552 37.4512 5.27185 37.3009 4.86072 37.0194C4.4496 36.7378 4.12917 36.3376 3.93995 35.8694C3.75073 35.4011 3.70122 34.8859 3.79768 34.3888C3.89415 33.8917 4.13225 33.4351 4.48188 33.0768C4.83151 32.7184 5.27697 32.4743 5.76192 32.3755C6.24687 32.2766 6.74954 32.3273 7.20636 32.5213C7.66317 32.7152 8.05362 33.0437 8.32832 33.4651C8.60303 33.8865 8.74965 34.3819 8.74965 34.8887C8.7489 35.5681 8.48527 36.2195 8.01659 36.6999C7.54791 37.1802 6.91246 37.4505 6.24965 37.4512ZM13.7496 21.4356C13.2552 21.4356 12.7718 21.2853 12.3607 21.0037C11.9496 20.7222 11.6292 20.322 11.4399 19.8537C11.2507 19.3855 11.2012 18.8703 11.2977 18.3732C11.3941 17.8761 11.6322 17.4195 11.9819 17.0611C12.3315 16.7028 12.777 16.4587 13.2619 16.3598C13.7469 16.261 14.2495 16.3117 14.7064 16.5057C15.1632 16.6996 15.5536 17.0281 15.8283 17.4495C16.103 17.8709 16.2496 18.3663 16.2496 18.8731C16.2489 19.5525 15.9853 20.2038 15.5166 20.6842C15.0479 21.1646 14.4125 21.4348 13.7496 21.4356ZM27.4996 32.3262C27.0052 32.3262 26.5218 32.1759 26.1107 31.8944C25.6996 31.6128 25.3792 31.2126 25.1899 30.7444C25.0007 30.2761 24.9512 29.7609 25.0477 29.2638C25.1441 28.7667 25.3822 28.3101 25.7319 27.9518C26.0815 27.5934 26.527 27.3493 27.0119 27.2505C27.4969 27.1516 27.9995 27.2023 28.4564 27.3963C28.9132 27.5902 29.3036 27.9187 29.5783 28.3401C29.853 28.7615 29.9996 29.2569 29.9996 29.7637C29.9989 30.4431 29.7353 31.0945 29.2666 31.5749C28.7979 32.0552 28.1625 32.3255 27.4996 32.3262ZM33.7496 11.1856C33.2552 11.1856 32.7718 11.0353 32.3607 10.7537C31.9496 10.4722 31.6292 10.072 31.4399 9.60373C31.2507 9.1355 31.2012 8.62027 31.2977 8.12319C31.3941 7.62611 31.6322 7.16952 31.9819 6.81115C32.3315 6.45278 32.777 6.20872 33.2619 6.10985C33.7469 6.01097 34.2495 6.06172 34.7064 6.25567C35.1632 6.44962 35.5536 6.77806 35.8283 7.19946C36.103 7.62086 36.2496 8.11629 36.2496 8.62311C36.2489 9.30249 35.9853 9.95383 35.5166 10.4342C35.0479 10.9146 34.4125 11.1848 33.7496 11.1856Z" fill="#FEFEFE"/>
</svg>
