<svg width="36" height="37" viewBox="0 0 36 37" fill="none" xmlns="http://www.w3.org/2000/svg">
<path d="M30.3751 2.3125C29.4011 2.31207 28.4533 2.63656 27.6742 3.23718C26.895 3.83781 26.3266 4.68213 26.0544 5.64324C25.7821 6.60435 25.8207 7.63031 26.1644 8.56693C26.5081 9.50354 27.1383 10.3002 27.9603 10.8372L25.0239 21.4C24.9332 21.3944 24.8421 21.3906 24.7501 21.3906C23.7821 21.3895 22.8398 21.711 22.0646 22.3068L16.6397 17.6605C16.8966 16.8773 16.9445 16.0377 16.7786 15.229C16.6127 14.4204 16.239 13.6722 15.6963 13.0622C15.1537 12.4523 14.4619 12.003 13.6931 11.761C12.9242 11.519 12.1063 11.4932 11.3244 11.6862C10.5425 11.8793 9.82522 12.2841 9.24718 12.8586C8.66914 13.4332 8.25144 14.1564 8.03755 14.9531C7.82365 15.7498 7.82138 16.5908 8.03095 17.3887C8.24053 18.1866 8.6543 18.9122 9.22922 19.49L6.04463 26.0364C5.90632 26.0232 5.76661 26.0156 5.62507 26.0156C4.54702 26.0142 3.50421 26.4101 2.68591 27.1314C1.86761 27.8528 1.32808 28.8518 1.16524 29.947C1.00239 31.0423 1.22704 32.1613 1.7984 33.1009C2.36976 34.0405 3.24996 34.7384 4.27923 35.0679C5.3085 35.3975 6.41862 35.3368 7.40807 34.8969C8.39753 34.457 9.20075 33.6671 9.67192 32.6706C10.1431 31.674 10.251 30.5368 9.97606 29.4655C9.70111 28.3941 9.06153 27.4596 8.17341 26.8315L11.1828 20.6464C11.9138 20.8536 12.684 20.8672 13.4215 20.6858C14.159 20.5044 14.8398 20.1339 15.4003 19.6089L20.6526 24.1076C20.2959 24.9154 20.1728 25.8116 20.298 26.6894C20.4231 27.5671 20.7913 28.3893 21.3584 29.058C21.9256 29.7267 22.668 30.2136 23.4969 30.4607C24.3259 30.7078 25.2065 30.7047 26.0338 30.4517C26.8611 30.1987 27.6002 29.7065 28.1628 29.0338C28.7255 28.3611 29.0881 27.5363 29.2073 26.6577C29.3265 25.7791 29.1974 24.8837 28.8353 24.0785C28.4732 23.2732 27.8934 22.592 27.165 22.116L30.1013 11.5531C30.1919 11.5587 30.283 11.5625 30.3751 11.5625C31.5685 11.5625 32.7131 11.0752 33.5571 10.2079C34.401 9.34051 34.8751 8.16413 34.8751 6.9375C34.8751 5.71087 34.401 4.53449 33.5571 3.66713C32.7131 2.79978 31.5685 2.3125 30.3751 2.3125ZM5.62507 32.9531C5.18007 32.9531 4.74505 32.8175 4.37504 32.5634C4.00503 32.3093 3.71664 31.9481 3.54635 31.5256C3.37605 31.103 3.33149 30.6381 3.41831 30.1895C3.50512 29.7409 3.71942 29.3288 4.03408 29.0054C4.34875 28.682 4.74966 28.4618 5.18612 28.3726C5.62258 28.2833 6.07498 28.3291 6.48611 28.5042C6.89725 28.6792 7.24865 28.9756 7.49588 29.3559C7.74311 29.7362 7.87507 30.1833 7.87507 30.6406C7.8744 31.2537 7.63714 31.8415 7.21532 32.275C6.79351 32.7086 6.22161 32.9524 5.62507 32.9531ZM12.3751 18.5C11.9301 18.5 11.4951 18.3644 11.125 18.1103C10.755 17.8562 10.4666 17.495 10.2963 17.0725C10.126 16.6499 10.0815 16.1849 10.1683 15.7364C10.2551 15.2878 10.4694 14.8757 10.7841 14.5523C11.0988 14.2289 11.4997 14.0087 11.9361 13.9194C12.3726 13.8302 12.825 13.876 13.2361 14.051C13.6472 14.2261 13.9986 14.5225 14.2459 14.9027C14.4931 15.283 14.6251 15.7301 14.6251 16.1875C14.6244 16.8006 14.3871 17.3884 13.9653 17.8219C13.5435 18.2555 12.9716 18.4993 12.3751 18.5ZM24.7501 28.3281C24.3051 28.3281 23.8701 28.1925 23.5 27.9384C23.13 27.6843 22.8416 27.3231 22.6713 26.9006C22.501 26.478 22.4565 26.0131 22.5433 25.5645C22.6301 25.1159 22.8444 24.7038 23.1591 24.3804C23.4738 24.057 23.8747 23.8368 24.3111 23.7476C24.7476 23.6583 25.2 23.7041 25.6111 23.8792C26.0222 24.0542 26.3736 24.3506 26.6209 24.7309C26.8681 25.1112 27.0001 25.5583 27.0001 26.0156C26.9994 26.6287 26.7621 27.2165 26.3403 27.65C25.9185 28.0836 25.3466 28.3274 24.7501 28.3281ZM30.3751 9.25C29.9301 9.25 29.4951 9.11437 29.125 8.86027C28.755 8.60617 28.4666 8.24501 28.2963 7.82246C28.126 7.3999 28.0815 6.93494 28.1683 6.48635C28.2551 6.03777 28.4694 5.62573 28.7841 5.30232C29.0988 4.97891 29.4997 4.75866 29.9361 4.66943C30.3726 4.58021 30.825 4.626 31.2361 4.80103C31.6472 4.97606 31.9986 5.27246 32.2459 5.65274C32.4931 6.03303 32.6251 6.48013 32.6251 6.9375C32.6244 7.5506 32.3871 8.1384 31.9653 8.57192C31.5435 9.00545 30.9716 9.24931 30.3751 9.25Z" fill="#FEFEFE"/>
</svg>
