<svg width="40" height="42" viewBox="0 0 40 42" fill="none" xmlns="http://www.w3.org/2000/svg">
<path d="M33.7501 2.92383C32.668 2.92335 31.6149 3.28292 30.7491 3.94848C29.8834 4.61404 29.2518 5.54964 28.9493 6.61465C28.6468 7.67966 28.6897 8.81654 29.0716 9.85441C29.4535 10.8923 30.1537 11.7751 31.067 12.3701L27.8044 24.0749C27.7036 24.0686 27.6024 24.0645 27.5001 24.0645C26.4246 24.0633 25.3776 24.4195 24.5163 25.0797L18.4887 19.9311C18.774 19.0632 18.8273 18.1329 18.6429 17.2368C18.4586 16.3407 18.0434 15.5116 17.4404 14.8357C16.8375 14.1599 16.0689 13.662 15.2146 13.3938C14.3603 13.1257 13.4514 13.097 12.5827 13.3109C11.7139 13.5248 10.917 13.9735 10.2747 14.6101C9.63243 15.2467 9.16832 16.0481 8.93066 16.931C8.693 17.8138 8.69047 18.7457 8.92333 19.6299C9.1562 20.5141 9.61594 21.3181 10.2547 21.9584L6.71631 29.2125C6.56264 29.1979 6.4074 29.1895 6.25014 29.1895C5.0523 29.1879 3.89362 29.6266 2.9844 30.4259C2.07518 31.2252 1.47569 32.3322 1.29476 33.5459C1.11383 34.7596 1.36343 35.9995 1.99828 37.0407C2.63312 38.0819 3.61112 38.8552 4.75475 39.2204C5.89839 39.5855 7.13185 39.5183 8.23125 39.0309C9.33064 38.5434 10.2231 37.6681 10.7466 36.5638C11.2702 35.4595 11.3901 34.1994 11.0846 33.0122C10.7791 31.8251 10.0684 30.7895 9.08162 30.0935L12.4254 23.2397C13.2376 23.4694 14.0934 23.4844 14.9128 23.2834C15.7323 23.0824 16.4887 22.6718 17.1115 22.0901L22.9474 27.0751C22.5511 27.9703 22.4143 28.9634 22.5534 29.936C22.6924 30.9087 23.1014 31.8198 23.7317 32.5607C24.3619 33.3017 25.1867 33.8413 26.1078 34.1151C27.0289 34.3889 28.0073 34.3854 28.9265 34.1051C29.8457 33.8247 30.6669 33.2793 31.2921 32.5339C31.9173 31.7885 32.3201 30.8745 32.4526 29.9009C32.5851 28.9273 32.4416 27.9352 32.0393 27.0429C31.6369 26.1506 30.9927 25.3957 30.1834 24.8682L33.4459 13.1634C33.5466 13.1697 33.6479 13.1738 33.7501 13.1738C35.0762 13.1738 36.348 12.6339 37.2857 11.6728C38.2233 10.7116 38.7501 9.40806 38.7501 8.04883C38.7501 6.68959 38.2233 5.38603 37.2857 4.42491C36.348 3.46378 35.0762 2.92383 33.7501 2.92383ZM6.25014 36.877C5.75568 36.877 5.27233 36.7267 4.86121 36.4451C4.45009 36.1635 4.12966 35.7633 3.94044 35.2951C3.75122 34.8268 3.70171 34.3116 3.79817 33.8145C3.89464 33.3175 4.13274 32.8609 4.48237 32.5025C4.832 32.1441 5.27746 31.9001 5.76241 31.8012C6.24736 31.7023 6.75003 31.7531 7.20685 31.947C7.66366 32.141 8.05411 32.4694 8.32881 32.8908C8.60351 33.3122 8.75014 33.8076 8.75014 34.3145C8.74939 34.9938 8.48576 35.6452 8.01708 36.1256C7.5484 36.606 6.91295 36.8762 6.25014 36.877ZM13.7501 20.8613C13.2557 20.8613 12.7723 20.711 12.3612 20.4295C11.9501 20.1479 11.6297 19.7477 11.4404 19.2795C11.2512 18.8112 11.2017 18.296 11.2982 17.7989C11.3946 17.3018 11.6327 16.8452 11.9824 16.4869C12.332 16.1285 12.7775 15.8844 13.2624 15.7856C13.7474 15.6867 14.25 15.7374 14.7068 15.9314C15.1637 16.1253 15.5541 16.4538 15.8288 16.8752C16.1035 17.2966 16.2501 17.792 16.2501 18.2988C16.2494 18.9782 15.9858 19.6296 15.5171 20.1099C15.0484 20.5903 14.4129 20.8606 13.7501 20.8613ZM27.5001 31.752C27.0057 31.752 26.5223 31.6017 26.1112 31.3201C25.7001 31.0385 25.3797 30.6383 25.1904 30.1701C25.0012 29.7018 24.9517 29.1866 25.0482 28.6895C25.1446 28.1925 25.3827 27.7359 25.7324 27.3775C26.082 27.0191 26.5275 26.7751 27.0124 26.6762C27.4974 26.5773 28 26.6281 28.4568 26.822C28.9137 27.016 29.3041 27.3444 29.5788 27.7658C29.8535 28.1872 30.0001 28.6826 30.0001 29.1895C29.9994 29.8688 29.7358 30.5202 29.2671 31.0006C28.7984 31.481 28.1629 31.7512 27.5001 31.752ZM33.7501 10.6113C33.2557 10.6113 32.7723 10.461 32.3612 10.1795C31.9501 9.8979 31.6297 9.49769 31.4404 9.02946C31.2512 8.56122 31.2017 8.04599 31.2982 7.54891C31.3946 7.05183 31.6327 6.59524 31.9824 6.23687C32.332 5.8785 32.7775 5.63444 33.2624 5.53557C33.7474 5.43669 34.25 5.48744 34.7068 5.68139C35.1637 5.87534 35.5541 6.20378 35.8288 6.62518C36.1035 7.04658 36.2501 7.54201 36.2501 8.04883C36.2494 8.72821 35.9858 9.37955 35.5171 9.85995C35.0484 10.3403 34.4129 10.6106 33.7501 10.6113Z" fill="#FEFEFE"/>
</svg>
