<svg width="404" height="588" viewBox="0 0 404 588" fill="none" xmlns="http://www.w3.org/2000/svg">
<g opacity="0.2">
<path d="M34.3141 135.937L26.6848 140.388L25.2551 137.781L32.8844 133.33L34.3141 135.937Z" fill="#B10000"/>
<path d="M37.7304 139.104L33.9158 141.33L41.0643 154.362L44.8789 152.137L46.3087 154.743L36.1361 160.678L34.7065 158.072L38.5212 155.846L31.3727 142.814L27.5579 145.039L26.1283 142.433L36.3008 136.498L37.7304 139.104Z" fill="#B10000"/>
<path d="M30.3412 134.814L28.9115 132.207L26.3683 133.691L27.798 136.298L30.3412 134.814Z" fill="#B10000"/>
<path d="M45.7517 156.788L38.1223 161.24L39.552 163.846L47.1814 159.395L45.7517 156.788Z" fill="#B10000"/>
<path d="M44.6385 160.879L46.0681 163.485L43.525 164.969L42.0954 162.362L44.6385 160.879Z" fill="#B10000"/>
</g>
<g opacity="0.2" clip-path="url(#clip0_11_45861)">
<path d="M352.893 104.985L359.783 110.513L357.862 112.781L350.972 107.254L352.893 104.985Z" fill="#B10000"/>
<path d="M354.626 100.661L358.071 103.425L367.676 92.0806L364.231 89.317L366.152 87.0481L375.339 94.4181L373.418 96.6868L369.973 93.9231L360.368 105.267L363.813 108.031L361.892 110.3L352.705 102.93L354.626 100.661Z" fill="#B10000"/>
<path d="M353.268 109.097L351.347 111.366L353.644 113.208L355.565 110.939L353.268 109.097Z" fill="#B10000"/>
<path d="M368.261 86.835L375.151 92.3625L377.072 90.0937L370.182 84.5663L368.261 86.835Z" fill="#B10000"/>
<path d="M372.479 86.4085L374.4 84.1398L376.697 85.9822L374.775 88.251L372.479 86.4085Z" fill="#B10000"/>
</g>
<g opacity="0.2" clip-path="url(#clip1_11_45861)">
<path d="M15.7644 28.1374L10.8585 35.4827L8.43089 33.7668L13.3368 26.4214L15.7644 28.1374Z" fill="#B10000"/>
<path d="M20.2236 29.4869L17.7708 33.1596L29.9089 41.7394L32.3618 38.0668L34.7894 39.7827L28.2482 49.5766L25.8207 47.8607L28.2736 44.1879L16.1355 35.6081L13.6825 39.2808L11.2549 37.5648L17.7961 27.771L20.2236 29.4869Z" fill="#B10000"/>
<path d="M11.7018 28.8699L9.27416 27.1539L7.63889 29.6025L10.0665 31.3184L11.7018 28.8699Z" fill="#B10000"/>
<path d="M35.1855 41.8649L30.2795 49.2104L32.7072 50.9263L37.613 43.5809L35.1855 41.8649Z" fill="#B10000"/>
<path d="M35.9778 46.0295L38.4053 47.7455L36.77 50.1939L34.3425 48.478L35.9778 46.0295Z" fill="#B10000"/>
</g>
<g opacity="0.2">
<path d="M64.4106 430.392L59.2485 423.224L61.706 421.552L66.8681 428.719L64.4106 430.392Z" fill="#B10000"/>
<path d="M61.5852 434.096L59.0042 430.512L46.7168 438.877L49.2978 442.461L46.8404 444.134L39.9575 434.577L42.415 432.904L44.9961 436.488L57.2834 428.123L54.7023 424.539L57.1598 422.866L64.0427 432.423L61.5852 434.096Z" fill="#B10000"/>
<path d="M65.1476 426.33L67.605 424.657L65.8842 422.268L63.4268 423.941L65.1476 426.33Z" fill="#B10000"/>
<path d="M44.7515 443.775L39.5893 436.608L37.1318 438.281L42.294 445.448L44.7515 443.775Z" fill="#B10000"/>
<path d="M40.5732 443.059L38.1157 444.732L36.395 442.343L38.8525 440.67L40.5732 443.059Z" fill="#B10000"/>
</g>
<g opacity="0.2">
<path d="M338.235 32.0975L345.745 27.448L347.242 30.0162L339.732 34.6657L338.235 32.0975Z" fill="#B10000"/>
<path d="M334.737 29.0202L338.492 26.6954L331.005 13.8545L327.25 16.1792L325.752 13.6111L335.766 7.41163L337.263 9.97979L333.508 12.3046L340.995 25.1455L344.75 22.8207L346.248 25.3889L336.234 31.5884L334.737 29.0202Z" fill="#B10000"/>
<path d="M342.235 33.1159L343.733 35.684L346.236 34.1341L344.739 31.5659L342.235 33.1159Z" fill="#B10000"/>
<path d="M326.255 11.5523L333.766 6.90264L332.268 4.33447L324.758 8.9841L326.255 11.5523Z" fill="#B10000"/>
<path d="M327.261 7.43421L325.764 4.86604L328.267 3.31617L329.765 5.88433L327.261 7.43421Z" fill="#B10000"/>
</g>
<g opacity="0.2" clip-path="url(#clip2_11_45861)">
<path d="M220.979 575.223L226.076 568.009L228.458 569.788L223.361 577.002L220.979 575.223Z" fill="#B10000"/>
<path d="M216.557 573.757L219.105 570.15L207.196 561.255L204.648 564.862L202.266 563.084L209.061 553.464L211.443 555.243L208.895 558.85L220.804 567.745L223.352 564.138L225.734 565.917L218.939 575.536L216.557 573.757Z" fill="#B10000"/>
<path d="M225.06 574.597L227.442 576.376L229.141 573.971L226.759 572.192L225.06 574.597Z" fill="#B10000"/>
<path d="M201.925 560.992L207.021 553.777L204.639 551.998L199.543 559.213L201.925 560.992Z" fill="#B10000"/>
<path d="M201.241 556.808L198.86 555.029L200.558 552.624L202.94 554.403L201.241 556.808Z" fill="#B10000"/>
</g>
<g opacity="0.2" clip-path="url(#clip3_11_45861)">
<path d="M44.9577 565.716L53.7906 565.753L53.6996 568.724L44.8667 568.688L44.9577 565.716Z" fill="#B10000"/>
<path d="M43.622 561.253L48.0383 561.271L48.4935 546.414L44.0771 546.396L44.1681 543.424L55.9454 543.473L55.8544 546.445L51.4378 546.426L50.9827 561.284L55.3992 561.302L55.3082 564.273L43.5309 564.224L43.622 561.253Z" fill="#B10000"/>
<path d="M47.8111 568.7L47.7201 571.671L50.6644 571.684L50.7555 568.712L47.8111 568.7Z" fill="#B10000"/>
<path d="M45.6859 541.945L54.5189 541.982L54.6099 539.01L45.777 538.973L45.6859 541.945Z" fill="#B10000"/>
<path d="M48.7211 538.985L48.8122 536.014L51.7565 536.026L51.6654 538.998L48.7211 538.985Z" fill="#B10000"/>
</g>
<g opacity="0.2" clip-path="url(#clip4_11_45861)">
<path d="M48.6209 316.777L53.2674 309.265L55.7534 310.895L51.1069 318.407L48.6209 316.777Z" fill="#B10000"/>
<path d="M44.1175 315.584L46.4407 311.828L34.0106 303.677L31.6874 307.433L29.2013 305.803L35.3967 295.786L37.8827 297.417L35.5594 301.173L47.9895 309.324L50.3128 305.568L52.7988 307.198L46.6035 317.214L44.1175 315.584Z" fill="#B10000"/>
<path d="M52.6561 315.903L55.1421 317.533L56.6909 315.029L54.2049 313.399L52.6561 315.903Z" fill="#B10000"/>
<path d="M28.7328 303.735L33.3794 296.223L30.8933 294.593L26.2468 302.105L28.7328 303.735Z" fill="#B10000"/>
<path d="M27.7959 299.601L25.31 297.971L26.8588 295.467L29.3447 297.097L27.7959 299.601Z" fill="#B10000"/>
</g>
<g opacity="0.2">
<path d="M121.411 88.392L116.249 81.2245L118.706 79.5515L123.868 86.7191L121.411 88.392Z" fill="#B10000"/>
<path d="M118.585 92.0959L116.004 88.5122L103.717 96.8769L106.298 100.461L103.84 102.134L96.9575 92.5767L99.415 90.9038L101.996 94.4877L114.283 86.123L111.702 82.5391L114.16 80.8662L121.043 90.423L118.585 92.0959Z" fill="#B10000"/>
<path d="M122.148 84.3297L124.605 82.6568L122.884 80.2676L120.427 81.9405L122.148 84.3297Z" fill="#B10000"/>
<path d="M101.751 101.775L96.5893 94.6077L94.1318 96.2807L99.294 103.448L101.751 101.775Z" fill="#B10000"/>
<path d="M97.5732 101.059L95.1157 102.732L93.395 100.343L95.8525 98.6699L97.5732 101.059Z" fill="#B10000"/>
</g>
<g opacity="0.2" clip-path="url(#clip5_11_45861)">
<path d="M388.138 211.93L393.903 205.238L396.103 207.237L390.339 213.929L388.138 211.93Z" fill="#B10000"/>
<path d="M383.877 210.047L386.759 206.701L375.757 196.706L372.875 200.052L370.675 198.053L378.361 189.13L380.561 191.129L377.679 194.475L388.681 204.47L391.563 201.124L393.763 203.123L386.077 212.046L383.877 210.047Z" fill="#B10000"/>
<path d="M392.26 211.698L394.46 213.697L396.382 211.466L394.181 209.467L392.26 211.698Z" fill="#B10000"/>
<path d="M370.535 195.938L376.3 189.246L374.099 187.247L368.335 193.939L370.535 195.938Z" fill="#B10000"/>
<path d="M370.256 191.708L368.056 189.709L369.977 187.478L372.178 189.477L370.256 191.708Z" fill="#B10000"/>
</g>
<g opacity="0.2">
<path d="M349.2 306.976L355.083 313.565L352.814 315.486L346.931 308.897L349.2 306.976Z" fill="#B10000"/>
<path d="M351.624 302.997L354.565 306.292L365.911 296.688L362.969 293.394L365.238 291.473L373.083 300.258L370.813 302.179L367.872 298.885L356.526 308.488L359.468 311.782L357.199 313.703L349.354 304.918L351.624 302.997Z" fill="#B10000"/>
<path d="M348.892 311.093L346.623 313.014L348.584 315.21L350.853 313.289L348.892 311.093Z" fill="#B10000"/>
<path d="M367.354 291.611L373.237 298.2L375.506 296.279L369.623 289.691L367.354 291.611Z" fill="#B10000"/>
<path d="M371.584 291.887L373.853 289.966L375.814 292.162L373.545 294.083L371.584 291.887Z" fill="#B10000"/>
</g>
<g opacity="0.2">
<path d="M348.216 420.883L355.338 415.659L357.033 418.101L349.91 423.326L348.216 420.883Z" fill="#B10000"/>
<path d="M344.488 418.09L348.049 415.478L339.577 403.264L336.016 405.876L334.322 403.433L343.818 396.467L345.513 398.91L341.951 401.522L350.423 413.736L353.984 411.124L355.678 413.567L346.182 420.533L344.488 418.09Z" fill="#B10000"/>
<path d="M352.285 421.585L353.979 424.027L356.353 422.286L354.659 419.843L352.285 421.585Z" fill="#B10000"/>
<path d="M334.662 401.341L341.784 396.117L340.09 393.674L332.968 398.898L334.662 401.341Z" fill="#B10000"/>
<path d="M335.341 397.157L333.647 394.714L336.021 392.973L337.715 395.415L335.341 397.157Z" fill="#B10000"/>
</g>
<g opacity="0.2" clip-path="url(#clip6_11_45861)">
<path d="M354.135 552.458L357.549 544.312L360.26 545.533L356.845 553.679L354.135 552.458Z" fill="#B10000"/>
<path d="M349.5 551.984L351.207 547.911L337.655 541.805L335.948 545.878L333.238 544.657L337.79 533.795L340.5 535.016L338.793 539.089L352.345 545.195L354.053 541.122L356.763 542.343L352.211 553.205L349.5 551.984Z" fill="#B10000"/>
<path d="M357.983 550.964L360.694 552.185L361.832 549.47L359.121 548.248L357.983 550.964Z" fill="#B10000"/>
<path d="M332.452 542.688L335.866 534.542L333.156 533.321L329.741 541.467L332.452 542.688Z" fill="#B10000"/>
<path d="M330.879 538.752L328.169 537.53L329.307 534.815L332.017 536.036L330.879 538.752Z" fill="#B10000"/>
</g>
<defs>
<clipPath id="clip0_11_45861">
<rect width="36" height="35" fill="white" transform="translate(386.044 110.727) rotate(164.5)"/>
</clipPath>
<clipPath id="clip1_11_45861">
<rect width="36" height="35" fill="white" transform="translate(12.9341 61.6626) rotate(-110.5)"/>
</clipPath>
<clipPath id="clip2_11_45861">
<rect width="36" height="35" fill="white" transform="translate(224.687 541.783) rotate(71)"/>
</clipPath>
<clipPath id="clip3_11_45861">
<rect width="36" height="35" fill="white" transform="translate(74.4761 549.573) rotate(126)"/>
</clipPath>
<clipPath id="clip4_11_45861">
<rect width="36" height="35" fill="white" transform="translate(50.2798 283.173) rotate(67.5)"/>
</clipPath>
<clipPath id="clip5_11_45861">
<rect width="36" height="35" fill="white" transform="translate(395.033 179) rotate(76.5)"/>
</clipPath>
<clipPath id="clip6_11_45861">
<rect width="36" height="35" fill="white" transform="translate(350.517 519.009) rotate(58.5)"/>
</clipPath>
</defs>
</svg>
