<svg width="24" height="24" viewBox="0 0 24 24" fill="none" xmlns="http://www.w3.org/2000/svg">
<path d="M12.5501 14.63L19.4501 10C19.6005 9.90095 19.7749 9.84435 19.9548 9.83619C20.1347 9.82802 20.3135 9.86858 20.4722 9.95359C20.631 10.0386 20.7638 10.1649 20.8567 10.3192C20.9497 10.4734 20.9992 10.6499 21.0001 10.83V20C21.0001 20.2652 20.8948 20.5196 20.7072 20.7071C20.5197 20.8946 20.2654 21 20.0001 21H4.00013C3.73492 21 3.48056 20.8946 3.29303 20.7071C3.10549 20.5196 3.00013 20.2652 3.00013 20V10.87C2.99366 10.6865 3.03782 10.5048 3.12776 10.3448C3.21771 10.1848 3.34997 10.0526 3.51005 9.96273C3.67014 9.87288 3.85186 9.82882 4.03532 9.8354C4.21878 9.84197 4.39689 9.89892 4.55013 10L11.4501 14.59C11.6095 14.7035 11.7986 14.7679 11.9941 14.775C12.1897 14.7821 12.383 14.7317 12.5501 14.63ZM11.4501 14.63C11.6134 14.7375 11.8046 14.7948 12.0001 14.7948C12.1956 14.7948 12.3869 14.7375 12.5501 14.63L18.0001 11V3H6.00013V11L11.4501 14.63Z" stroke="#1C2126" stroke-width="2" stroke-linecap="round" stroke-linejoin="round"/>
</svg>
