<svg width="42" height="42" viewBox="0 0 42 42" fill="none" xmlns="http://www.w3.org/2000/svg">
<path d="M31.4827 2.7925C29.7173 2.60569 27.9429 2.5149 26.1677 2.52078C20.282 2.52078 16.6248 6.26847 16.6248 12.303V16.3994H11.6807C11.1977 16.3991 10.8059 16.7905 10.8057 17.2735V24.013C10.8053 24.496 11.1967 24.8876 11.6797 24.888H16.6248V38.3958C16.6244 38.8788 17.0158 39.2705 17.4988 39.2708H24.4604C24.9435 39.2711 25.3351 38.8797 25.3354 38.3967V24.888H30.2643C30.7039 24.8879 31.0754 24.5618 31.1324 24.1258L32.0023 17.3872C32.0648 16.9083 31.7272 16.4693 31.2481 16.4068C31.2103 16.4019 31.1723 16.3994 31.1341 16.3994H25.3354V12.9712C25.3354 11.2742 25.6772 10.565 27.7998 10.565L31.3682 10.5633C31.8512 10.5635 32.2428 10.1722 32.2432 9.68922V3.66067C32.2433 3.22146 31.918 2.85018 31.4827 2.7925ZM30.4932 8.81326L27.7998 8.81497C24.0229 8.81497 23.5854 11.187 23.5854 12.9712V17.2745C23.5852 17.7574 23.9765 18.1492 24.4595 18.1494H30.1394L29.4951 23.138H24.4604C23.9774 23.1377 23.5858 23.529 23.5854 24.012V37.5208H18.3748V24.013C18.3751 23.53 17.9837 23.1383 17.5008 23.138H12.5557V18.1494H17.4998C17.9828 18.1498 18.3744 17.7584 18.3748 17.2754V12.303C18.3748 7.27346 21.2885 4.27078 26.1677 4.27078C27.9331 4.27078 29.5276 4.36648 30.4932 4.45022V8.81326Z" fill="#B10000"/>
</svg>
