<svg width="38" height="38" viewBox="0 0 38 38" fill="none" xmlns="http://www.w3.org/2000/svg">
<path d="M1.58337 34.8333C1.58337 35.6883 2.29587 36.4166 3.16671 36.4166H23.75C24.6367 36.4166 25.3334 35.6883 25.3334 34.8333V33.2499H1.58337V34.8333ZM13.4584 14.2499C7.52087 14.2499 1.58337 17.4166 1.58337 23.7499H25.3334C25.3334 17.4166 19.3959 14.2499 13.4584 14.2499ZM5.73171 20.5833C7.48921 18.1291 11.2259 17.4166 13.4584 17.4166C15.6909 17.4166 19.4275 18.1291 21.185 20.5833H5.73171ZM1.58337 26.9166H25.3334V30.0833H1.58337V26.9166ZM28.5 7.91659V1.58325H25.3334V7.91659H17.4167L17.7809 11.0833H32.9175L30.7009 33.2499H28.5V36.4166H31.2234C32.5534 36.4166 33.6459 35.3874 33.8042 34.0891L36.4167 7.91659H28.5Z" fill="white"/>
</svg>
