<svg width="41" height="41" viewBox="0 0 41 41" fill="none" xmlns="http://www.w3.org/2000/svg">
<path d="M1.70825 37.5833C1.70825 38.5058 2.477 39.2916 3.41659 39.2916H25.6249C26.5816 39.2916 27.3333 38.5058 27.3333 37.5833V35.8749H1.70825V37.5833ZM14.5208 15.3749C8.1145 15.3749 1.70825 18.7916 1.70825 25.6249H27.3333C27.3333 18.7916 20.927 15.3749 14.5208 15.3749ZM6.18409 22.2083C8.08034 19.5603 12.112 18.7916 14.5208 18.7916C16.9295 18.7916 20.9612 19.5603 22.8574 22.2083H6.18409ZM1.70825 29.0416H27.3333V32.4583H1.70825V29.0416ZM30.7499 8.54159V1.70825H27.3333V8.54159H18.7916L19.1845 11.9583H35.5162L33.1245 35.8749H30.7499V39.2916H33.6883C35.1233 39.2916 36.302 38.1812 36.4728 36.7803L39.2916 8.54159H30.7499Z" fill="white"/>
</svg>
