<svg width="41" height="42" viewBox="0 0 41 42" fill="none" xmlns="http://www.w3.org/2000/svg">
<path d="M1.7085 37.9446C1.7085 38.8671 2.47725 39.6529 3.41683 39.6529H25.6252C26.5818 39.6529 27.3335 38.8671 27.3335 37.9446V36.2363H1.7085V37.9446ZM14.521 15.7362C8.11475 15.7362 1.7085 19.1529 1.7085 25.9862H27.3335C27.3335 19.1529 20.9272 15.7362 14.521 15.7362ZM6.18433 22.5696C8.08058 19.9217 12.1122 19.1529 14.521 19.1529C16.9297 19.1529 20.9614 19.9217 22.8577 22.5696H6.18433ZM1.7085 29.4029H27.3335V32.8196H1.7085V29.4029ZM30.7502 8.90291V2.06958H27.3335V8.90291H18.7918L19.1847 12.3196H35.5164L33.1247 36.2363H30.7502V39.6529H33.6885C35.1235 39.6529 36.3022 38.5425 36.4731 37.1417L39.2918 8.90291H30.7502Z" fill="white"/>
</svg>
