<svg width="41" height="42" viewBox="0 0 41 42" fill="none" xmlns="http://www.w3.org/2000/svg">
<path d="M1.70801 38.519C1.70801 39.4415 2.47676 40.2273 3.41634 40.2273H25.6247C26.5813 40.2273 27.333 39.4415 27.333 38.519V36.8106H1.70801V38.519ZM14.5205 16.3106C8.11426 16.3106 1.70801 19.7273 1.70801 26.5606H27.333C27.333 19.7273 20.9268 16.3106 14.5205 16.3106ZM6.18384 23.144C8.08009 20.496 12.1118 19.7273 14.5205 19.7273C16.9293 19.7273 20.9609 20.496 22.8572 23.144H6.18384ZM1.70801 29.9773H27.333V33.394H1.70801V29.9773ZM30.7497 9.47729V2.64395H27.333V9.47729H18.7913L19.1843 12.894H35.5159L33.1243 36.8106H30.7497V40.2273H33.688C35.123 40.2273 36.3018 39.1169 36.4726 37.716L39.2913 9.47729H30.7497Z" fill="white"/>
</svg>
