<svg width="37" height="35" viewBox="0 0 37 35" fill="none" xmlns="http://www.w3.org/2000/svg">
<path d="M14.4502 16.8693C15.0869 20.8765 13.9205 23.0674 10.6266 23.5281C6.96638 24.0402 5.4582 21.7207 4.82154 17.7135C3.96519 12.3213 5.97779 8.96759 8.84746 8.75158C11.4591 8.55539 13.8128 12.8627 14.4502 16.8693Z" stroke="#B10000" stroke-width="1.49989" stroke-miterlimit="10"/>
<path d="M16.1617 27.9905C16.3879 30.2655 15.0879 32.3888 13.1266 32.7524C11.1465 33.1188 8.88385 31.6334 8.42279 29.3898C7.96174 27.1463 9.70551 27.0273 11.8424 26.6411C13.9793 26.2549 15.8886 25.2466 16.1617 27.9905Z" stroke="#B10000" stroke-width="1.49989" stroke-miterlimit="10"/>
<path d="M22.5466 10.306C21.91 14.3133 23.0763 16.5042 26.3695 16.9649C30.0305 17.4769 31.5379 15.1575 32.1746 11.1503C33.0316 5.75741 31.0183 2.38524 28.1494 2.18836C25.5189 2.0079 23.184 6.29881 22.5466 10.306Z" stroke="#B10000" stroke-width="1.49989" stroke-miterlimit="10"/>
<path d="M20.8381 21.4279C20.6119 23.7023 21.912 25.8262 23.8733 26.1899C25.8534 26.5563 28.116 25.0708 28.5771 22.8273C29.0381 20.5837 27.2943 20.4648 25.1574 20.0778C23.0205 19.6909 21.1113 18.6833 20.8381 21.4279Z" stroke="#B10000" stroke-width="1.49989" stroke-miterlimit="10"/>
</svg>
