<svg width="28" height="27" viewBox="0 0 28 27" fill="none" xmlns="http://www.w3.org/2000/svg">
<path d="M19.8333 7.875H25.6666V19.125H19.8333V21.375C19.8333 21.6734 19.9562 21.9595 20.175 22.1705C20.3938 22.3815 20.6905 22.5 20.9999 22.5H23.3333V24.75H20.4166C19.7749 24.75 18.6666 24.2437 18.6666 23.625C18.6666 24.2437 17.5583 24.75 16.9166 24.75H13.9999V22.5H16.3333C16.6427 22.5 16.9394 22.3815 17.1582 22.1705C17.377 21.9595 17.4999 21.6734 17.4999 21.375V5.625C17.4999 5.32663 17.377 5.04048 17.1582 4.8295C16.9394 4.61853 16.6427 4.5 16.3333 4.5H13.9999V2.25H16.9166C17.5583 2.25 18.6666 2.75625 18.6666 3.375C18.6666 2.75625 19.7749 2.25 20.4166 2.25H23.3333V4.5H20.9999C20.6905 4.5 20.3938 4.61853 20.175 4.8295C19.9562 5.04048 19.8333 5.32663 19.8333 5.625V7.875ZM2.33325 7.875H15.1666V10.125H4.66659V16.875H15.1666V19.125H2.33325V7.875ZM23.3333 16.875V10.125H19.8333V16.875H23.3333ZM9.91659 13.5C9.91659 13.0524 9.73221 12.6232 9.40402 12.3068C9.07583 11.9903 8.63071 11.8125 8.16659 11.8125C7.70246 11.8125 7.25734 11.9903 6.92915 12.3068C6.60096 12.6232 6.41659 13.0524 6.41659 13.5C6.41659 13.9476 6.60096 14.3768 6.92915 14.6932C7.25734 15.0097 7.70246 15.1875 8.16659 15.1875C8.63071 15.1875 9.07583 15.0097 9.40402 14.6932C9.73221 14.3768 9.91659 13.9476 9.91659 13.5ZM15.1666 12.2513C14.4549 11.6213 13.3466 11.6775 12.6933 12.375C12.0399 13.05 12.0983 14.1187 12.8333 14.7487C13.4749 15.3337 14.5016 15.3337 15.1666 14.7487V12.2513Z" fill="#1C2126"/>
</svg>
