<svg width="29" height="29" viewBox="0 0 29 29" fill="none" xmlns="http://www.w3.org/2000/svg">
<path d="M23.7946 21.0702L20.1625 17.4325C19.9986 17.2684 19.7763 17.177 19.5429 17.1768L18.9486 17.1763C19.956 15.8903 20.5553 14.2723 20.5568 12.5115C20.5604 8.32284 17.1688 4.92601 12.9794 4.92246C8.79003 4.9189 5.39263 8.30995 5.38907 12.4986C5.38551 16.6873 8.77715 20.0841 12.9665 20.0876C14.7276 20.0891 16.347 19.4926 17.6349 18.4876L17.6344 19.0818C17.6342 19.3151 17.7251 19.5376 17.8891 19.7018L21.5212 23.3394C21.8636 23.6823 22.4178 23.6828 22.7572 23.3404L23.7899 22.3096C24.1329 21.9673 24.1334 21.4131 23.7946 21.0702ZM12.969 17.1713C10.3912 17.1691 8.30375 15.0821 8.30595 12.5011C8.30814 9.92373 10.3955 7.83665 12.9769 7.83884C15.5547 7.84103 17.6422 9.92801 17.64 12.509C17.6378 15.0864 15.5504 17.1734 12.969 17.1713Z" fill="white"/>
</svg>
