<svg width="22" height="23" viewBox="0 0 22 23" fill="none" xmlns="http://www.w3.org/2000/svg">
<path d="M10.8869 1.05647C12.9963 1.04891 15.0605 1.66565 16.8181 2.82862C18.5757 3.99163 19.9476 5.6486 20.76 7.58968C21.5724 9.53076 21.7887 11.6686 21.3815 13.7323C20.9743 15.7961 19.9619 17.6929 18.4726 19.1825C16.9834 20.672 15.0842 21.6874 13.0158 22.0999C10.9473 22.5125 8.80258 22.3038 6.85321 21.5001C4.90383 20.6965 3.23747 19.3341 2.06526 17.5854C0.893077 15.8368 0.267774 13.7806 0.268576 11.6774M10.8869 1.05647C9.49019 1.05816 8.10746 1.33425 6.81777 1.86897C5.52803 2.40371 4.3566 3.18662 3.37045 4.17297C2.3843 5.15932 1.60277 6.32977 1.07053 7.61744C0.5383 8.90507 0.265787 10.2847 0.268576 11.6774M10.8869 1.05647C10.887 1.05647 10.887 1.05647 10.8871 1.05646L10.8872 1.18146L10.8868 1.05647C10.8868 1.05647 10.8869 1.05647 10.8869 1.05647ZM0.268576 11.6774C0.268576 11.6774 0.268576 11.6775 0.268576 11.6775L0.393576 11.6773L0.268576 11.6772C0.268576 11.6773 0.268576 11.6773 0.268576 11.6774ZM10.9078 2.29163L10.908 2.29163C12.1456 2.29489 13.3703 2.54149 14.5122 3.0173C15.654 3.49311 16.6904 4.18878 17.5622 5.06446C18.4339 5.94015 19.1238 6.97864 19.5924 8.12048C20.061 9.26231 20.2991 10.4851 20.2931 11.7187L20.2931 11.719C20.2873 13.5782 19.7285 15.394 18.6874 16.9365C17.6462 18.4791 16.1695 19.6792 14.4439 20.3849C12.7184 21.0906 10.8217 21.2701 8.99376 20.9008C7.16584 20.5315 5.4889 19.6299 4.17513 18.3102C2.86137 16.9905 1.9698 15.312 1.61317 13.487C1.25653 11.6621 1.45084 9.77271 2.17154 8.05789C2.89224 6.34306 4.10695 4.87984 5.66205 3.85339C7.21714 2.82694 9.04274 2.28341 10.9078 2.29163Z" fill="#B10000" stroke="#B10000" stroke-width="0.25"/>
<path d="M12.5299 16.2876C12.4961 16.5065 12.4708 16.7086 12.437 16.9065C12.4338 16.9267 12.4265 16.9461 12.4157 16.9635C12.4048 16.9808 12.3905 16.9958 12.3736 17.0075C11.9569 17.3294 11.4638 17.5383 10.9421 17.6138C10.7528 17.6342 10.5613 17.6153 10.3797 17.5582C10.1981 17.5011 10.0304 17.407 9.88715 17.282C9.74388 17.157 9.62819 17.0037 9.54738 16.8318C9.46657 16.6599 9.42239 16.4732 9.41765 16.2834C9.39255 15.6046 9.45499 14.9255 9.60346 14.2626C9.74703 13.4458 9.91172 12.629 10.0257 11.8081C10.0593 11.503 10.0593 11.1953 10.0257 10.8903C10.0239 10.8386 10.0112 10.7879 9.98837 10.7415C9.96553 10.6951 9.93309 10.6541 9.89321 10.6211C9.85333 10.5881 9.80688 10.5639 9.75694 10.55C9.707 10.5362 9.6547 10.5331 9.60346 10.5408C9.33656 10.563 9.07138 10.6024 8.80957 10.6587C8.83491 10.4861 8.8687 10.2798 8.90249 10.0693C8.91169 10.0431 8.92956 10.0208 8.95316 10.0061C9.39925 9.68801 9.91697 9.48414 10.4607 9.4125C10.6328 9.39087 10.8075 9.40472 10.974 9.45317C11.1405 9.50161 11.2953 9.58363 11.4287 9.69415C11.5621 9.80467 11.6714 9.94133 11.7496 10.0957C11.8279 10.25 11.8736 10.4187 11.8838 10.5913C11.9472 11.275 11.9002 11.9644 11.7444 12.6332C11.5755 13.5384 11.3982 14.4394 11.2461 15.3488C11.2103 15.5902 11.2103 15.8356 11.2461 16.0771C11.2491 16.142 11.2661 16.2055 11.296 16.2632C11.3259 16.3209 11.368 16.3715 11.4193 16.4115C11.4707 16.4515 11.5301 16.4799 11.5935 16.4949C11.6569 16.5098 11.7228 16.5109 11.7866 16.4981C11.9128 16.4854 12.0373 16.46 12.1582 16.4223C12.2934 16.3929 12.399 16.3423 12.5299 16.2876Z" fill="#B10000"/>
<path d="M11.4533 8.09892C11.2951 8.1034 11.1375 8.07662 10.9898 8.02011C10.842 7.96361 10.7069 7.8785 10.5923 7.7697C10.4777 7.6609 10.3858 7.53057 10.3219 7.38619C10.2581 7.24182 10.2235 7.08627 10.2202 6.92852C10.2224 6.6065 10.3517 6.2983 10.5801 6.0706C10.8085 5.8429 11.1176 5.71399 11.4406 5.71179C11.5989 5.70956 11.7562 5.73874 11.9031 5.79762C12.0501 5.85649 12.1838 5.9439 12.2966 6.05476C12.4093 6.16562 12.4989 6.29772 12.56 6.44338C12.6211 6.58904 12.6525 6.74536 12.6525 6.90326C12.6572 7.06154 12.6294 7.2191 12.5708 7.36627C12.5122 7.51344 12.424 7.64712 12.3117 7.75909C12.1994 7.87106 12.0653 7.95896 11.9177 8.0174C11.7701 8.07584 11.612 8.10358 11.4533 8.09892Z" fill="#B10000"/>
</svg>
