<svg width="41" height="39" viewBox="0 0 41 39" fill="none" xmlns="http://www.w3.org/2000/svg">
<path d="M37.8087 16.3039C37.7355 15.9169 37.3813 15.6355 36.9679 15.6359H20.8789C20.4074 15.6356 20.0249 15.999 20.0247 16.4474C20.0247 16.4478 20.0247 16.4481 20.0247 16.4484V22.7341C20.0244 23.1826 20.4063 23.5463 20.8778 23.5466C20.8782 23.5466 20.8785 23.5466 20.8789 23.5466H28.9684C28.4622 24.9453 27.4853 26.1462 26.1891 26.9633C24.6053 27.9245 22.7571 28.4167 20.8789 28.3772C16.8749 28.3381 13.3486 25.8611 12.1311 22.2327L12.1297 22.2306C11.4754 20.3965 11.4754 18.4083 12.1297 16.5742L12.1311 16.5721C13.3488 12.9438 16.875 10.4669 20.8789 10.4276C23.0866 10.3937 25.22 11.1859 26.8197 12.6334C27.155 12.9394 27.6861 12.9337 28.0142 12.6207L32.914 7.95996C33.2477 7.64257 33.2478 7.12802 32.9142 6.81053C32.907 6.80369 32.8997 6.79695 32.8923 6.7904C29.6393 3.89141 25.3363 2.29765 20.8789 2.34069C14.0922 2.32125 7.88057 5.96372 4.84991 11.74C2.30524 16.5615 2.30524 22.2433 4.84991 27.0648C7.88078 32.8412 14.0919 36.484 20.8789 36.4657C25.249 36.5746 29.4978 35.0911 32.7561 32.3188L32.7638 32.3143C36.3323 29.0401 38.2824 24.4855 38.134 19.7714C38.1337 18.6086 38.0249 17.4483 37.8087 16.3039ZM20.8789 3.96569C24.5979 3.929 28.2091 5.15449 31.0638 7.42209L27.3736 10.9322C25.535 9.52535 23.2383 8.77226 20.8789 8.80261C16.5719 8.83097 12.6827 11.2592 10.9421 15.0068L6.70443 11.8809C9.55888 6.98172 14.9903 3.94863 20.8789 3.96569ZM4.64971 19.4032C4.64533 17.3309 5.08305 15.2793 5.93639 13.3725L10.3316 16.6148C9.79703 18.4384 9.79703 20.3664 10.3316 22.19L5.93816 25.431C5.09025 23.5236 4.65222 21.4741 4.64971 19.4032ZM20.8789 34.8407C14.99 34.8574 9.55846 31.8237 6.70443 26.9239L10.9421 23.798C12.6822 27.5458 16.5718 29.9743 20.879 30.0022C22.8836 30.0313 24.861 29.5567 26.6112 28.6263L26.7977 28.7641L30.8353 31.7478C27.9864 33.8324 24.472 34.9241 20.8789 34.8407ZM32.1232 30.6417L28.0609 27.6409C29.5517 26.4084 30.5573 24.73 30.912 22.8817C30.9982 22.4411 30.6928 22.0174 30.2297 21.9353C30.178 21.9262 30.1254 21.9215 30.0729 21.9216H21.733V17.2609H36.2405C36.364 18.0925 36.4259 18.9314 36.4257 19.7714C36.5488 23.7918 35.0032 27.6967 32.1232 30.6417Z" fill="#B10000"/>
</svg>
