<svg width="23" height="23" viewBox="0 0 23 23" fill="none" xmlns="http://www.w3.org/2000/svg">
<g clip-path="url(#clip0_11_46288)">
<path d="M4.06022 12.0983C5.06855 12.0983 5.89355 11.2733 5.89355 10.265C5.89355 9.25664 5.06855 8.43164 4.06022 8.43164C3.05189 8.43164 2.22689 9.25664 2.22689 10.265C2.22689 11.2733 3.05189 12.0983 4.06022 12.0983ZM5.09606 13.1066C4.75689 13.0516 4.41772 13.015 4.06022 13.015C3.15272 13.015 2.29105 13.2075 1.51189 13.5466C0.833555 13.84 0.393555 14.5 0.393555 15.2425V16.6816H4.51855V15.2058C4.51855 14.445 4.72939 13.73 5.09606 13.1066ZM18.7269 12.0983C19.7352 12.0983 20.5602 11.2733 20.5602 10.265C20.5602 9.25664 19.7352 8.43164 18.7269 8.43164C17.7186 8.43164 16.8936 9.25664 16.8936 10.265C16.8936 11.2733 17.7186 12.0983 18.7269 12.0983ZM22.3936 15.2425C22.3936 14.5 21.9536 13.84 21.2752 13.5466C20.4961 13.2075 19.6344 13.015 18.7269 13.015C18.3694 13.015 18.0302 13.0516 17.6911 13.1066C18.0577 13.73 18.2686 14.445 18.2686 15.2058V16.6816H22.3936V15.2425ZM15.2802 12.6941C14.2077 12.2175 12.8877 11.8691 11.3936 11.8691C9.89939 11.8691 8.57939 12.2266 7.50689 12.6941C6.51689 13.1341 5.89355 14.1241 5.89355 15.2058V16.6816H16.8936V15.2058C16.8936 14.1241 16.2702 13.1341 15.2802 12.6941ZM7.79105 14.8483C7.87355 14.6375 7.91022 14.4908 8.62522 14.2158C9.51439 13.8675 10.4494 13.7025 11.3936 13.7025C12.3377 13.7025 13.2727 13.8675 14.1619 14.2158C14.8677 14.4908 14.9044 14.6375 14.9961 14.8483H7.79105ZM11.3936 7.51497C11.8977 7.51497 12.3102 7.92747 12.3102 8.43164C12.3102 8.93581 11.8977 9.34831 11.3936 9.34831C10.8894 9.34831 10.4769 8.93581 10.4769 8.43164C10.4769 7.92747 10.8894 7.51497 11.3936 7.51497ZM11.3936 5.68164C9.87189 5.68164 8.64355 6.90997 8.64355 8.43164C8.64355 9.95331 9.87189 11.1816 11.3936 11.1816C12.9152 11.1816 14.1436 9.95331 14.1436 8.43164C14.1436 6.90997 12.9152 5.68164 11.3936 5.68164Z" fill="#B10000"/>
</g>
<defs>
<clipPath id="clip0_11_46288">
<rect width="22" height="22" fill="white" transform="translate(0.393555 0.181641)"/>
</clipPath>
</defs>
</svg>
