<svg width="82" height="81" viewBox="0 0 82 81" fill="none" xmlns="http://www.w3.org/2000/svg">
<circle cx="41.0031" cy="40.063" r="39.5" transform="rotate(0.0486618 41.0031 40.063)" fill="#2A3036" stroke="#407BFF" stroke-dasharray="5 5"/>
<path d="M42.1751 34.2305L39.8417 34.2285L39.8378 38.8951L35.1711 38.8912L35.1691 41.2245L39.8358 41.2285L39.8318 45.8951L42.1651 45.8971L42.1691 41.2305L46.8358 41.2344L46.8378 38.9011L42.1711 38.8971L42.1751 34.2305ZM41.0133 28.3961C34.5733 28.3907 29.3422 33.6129 29.3368 40.0529C29.3313 46.4929 34.5535 51.724 40.9935 51.7295C47.4335 51.7349 52.6646 46.5127 52.6701 40.0727C52.6756 33.6327 47.4533 28.4016 41.0133 28.3961ZM40.9955 49.3961C35.8505 49.3918 31.6657 45.1999 31.6701 40.0549C31.6745 34.9099 35.8664 30.7251 41.0114 30.7295C46.1564 30.7338 50.3411 34.9257 50.3368 40.0707C50.3324 45.2157 46.1405 49.4005 40.9955 49.3961Z" fill="#407BFF"/>
</svg>
