<svg width="22" height="23" viewBox="0 0 22 23" fill="none" xmlns="http://www.w3.org/2000/svg">
<mask id="path-1-outside-1_11_46319" maskUnits="userSpaceOnUse" x="-0.607422" y="0.181641" width="23" height="23" fill="black">
<rect fill="white" x="-0.607422" y="0.181641" width="23" height="23"/>
<path d="M21.3905 13.455V20.0877C21.393 20.6373 21.1778 21.1655 20.7918 21.5568C20.4059 21.9481 19.8807 22.1705 19.3312 22.1755H12.2582C12.1742 22.1852 12.0895 22.1633 12.0207 22.1142C11.9519 22.065 11.9038 21.992 11.8858 21.9094C11.5039 20.8733 11.1159 19.8404 10.734 18.8043C10.6777 18.6541 10.5744 18.6384 10.4399 18.6384H2.55625C2.26978 18.6476 1.98448 18.5979 1.71798 18.4924C1.45147 18.3869 1.2094 18.2279 1.00674 18.0253C0.804073 17.8226 0.645126 17.5805 0.539676 17.3139C0.434226 17.0474 0.384513 16.762 0.393642 16.4755C0.393642 14.3637 0.393642 12.2509 0.393642 10.137V3.33213C0.381809 2.89116 0.511221 2.45795 0.762958 2.09573C0.951587 1.81184 1.20809 1.57955 1.50923 1.41994C1.81037 1.26033 2.14659 1.17845 2.48738 1.18174C4.81898 1.18174 7.15059 1.18174 9.48218 1.18174C9.73881 1.18174 9.82018 1.24434 9.90468 1.49475C10.2469 2.48804 10.5859 3.47821 10.9218 4.46524C11.0126 4.72817 11.0094 4.72817 11.2974 4.72817H19.1685C19.5449 4.71275 19.9189 4.79469 20.2545 4.96606C20.599 5.13551 20.8884 5.39932 21.089 5.7268C21.2895 6.05428 21.393 6.43197 21.3874 6.81596C21.3874 9.03209 21.3874 11.2482 21.3874 13.4675L21.3905 13.455ZM1.04775 9.92104V16.4943C1.04033 16.6914 1.07359 16.888 1.14544 17.0717C1.21728 17.2554 1.32617 17.4223 1.46534 17.5621C1.6045 17.7019 1.77097 17.8115 1.95434 17.8841C2.13772 17.9567 2.33408 17.9908 2.5312 17.9842H14.5303C14.8026 17.9842 14.8433 17.9404 14.7588 17.6994C14.499 16.9357 14.2424 16.1719 13.9795 15.4081L12.3427 10.6566L9.40081 2.06756C9.31944 1.8328 9.3163 1.8328 9.06593 1.8328H2.55625C2.35471 1.82284 2.15334 1.85536 1.96518 1.92825C1.77702 2.00115 1.60628 2.11279 1.46404 2.25593C1.3218 2.39908 1.21123 2.57053 1.13951 2.75917C1.0678 2.9478 1.03654 3.14941 1.04775 3.35091V9.92104ZM20.7364 13.4518V6.83161C20.7398 6.63939 20.7045 6.44846 20.6326 6.27017C20.5607 6.09188 20.4537 5.92987 20.3179 5.79378C20.1821 5.6577 20.0204 5.55032 19.8423 5.47802C19.6642 5.40573 19.4733 5.37 19.2811 5.37297H11.5196C11.2692 5.37297 11.2442 5.41053 11.3256 5.64842L12.7621 9.84592C12.8372 10.0619 12.8372 10.0619 13.075 10.0337C13.1271 10.0306 13.1794 10.0306 13.2315 10.0337H15.2032C15.4066 10.0337 15.4473 9.99304 15.4473 9.78332C15.4473 9.68629 15.4473 9.58612 15.4473 9.48595C15.4473 9.40045 15.4813 9.31844 15.5417 9.25798C15.6022 9.19752 15.6842 9.16355 15.7697 9.16355C15.8551 9.16355 15.9371 9.19752 15.9976 9.25798C16.058 9.31844 16.092 9.40045 16.092 9.48595C16.092 9.58299 16.092 9.68315 16.092 9.79897C16.092 10.0024 16.1358 10.0431 16.3393 10.0431H19.2498C19.4877 10.0431 19.6254 10.1621 19.6285 10.3561C19.6317 10.5502 19.4908 10.6879 19.2436 10.6911H18.4299C18.407 10.688 18.3837 10.6896 18.3615 10.6957C18.3392 10.7018 18.3185 10.7123 18.3004 10.7266C18.2823 10.7409 18.2672 10.7587 18.2561 10.779C18.245 10.7992 18.2381 10.8215 18.2358 10.8444C18.2084 10.967 18.1718 11.0873 18.1263 11.2044C17.7091 12.2974 17.1207 13.317 16.3831 14.225C16.2641 14.3783 16.261 14.4096 16.405 14.538L17.9542 16.0623C18.0516 16.1494 18.1446 16.2413 18.2327 16.3378C18.2864 16.3957 18.3162 16.4717 18.3162 16.5506C18.3162 16.6296 18.2864 16.7056 18.2327 16.7635C18.1775 16.8243 18.1007 16.861 18.0187 16.8657C17.9368 16.8704 17.8563 16.8427 17.7945 16.7885C17.7163 16.7259 17.6443 16.6602 17.5723 16.5913L16.0075 15.0263C15.8542 14.8729 15.8479 14.8729 15.6945 15.0263C15.4661 15.2391 15.2439 15.4582 15.0029 15.6523C14.9539 15.6859 14.9183 15.7357 14.9023 15.7929C14.8863 15.8501 14.8909 15.9111 14.9153 15.9653C15.1656 16.6821 15.4066 17.402 15.6601 18.1188C15.6897 18.1912 15.6975 18.2707 15.6825 18.3475C15.6675 18.4242 15.6303 18.4949 15.5756 18.5508C14.8141 19.4147 14.0546 20.2807 13.2972 21.1488C13.238 21.2338 13.1906 21.3265 13.1564 21.4242C13.2573 21.4611 13.3625 21.4853 13.4694 21.4962C14.1297 21.4962 14.7932 21.4962 15.4536 21.4962C16.7273 21.4962 18.0011 21.4962 19.2717 21.4962C19.4758 21.5082 19.6801 21.4766 19.8711 21.4037C20.0621 21.3307 20.2353 21.218 20.3795 21.0729C20.5236 20.9279 20.6352 20.7539 20.707 20.5625C20.7788 20.371 20.8091 20.1665 20.7959 19.9625L20.7364 13.4518ZM15.3472 10.6817H14.5021C14.089 10.6817 13.679 10.6817 13.2659 10.6817C13.1032 10.6817 13.0719 10.7317 13.1188 10.8726C13.5799 12.2227 14.041 13.5718 14.5021 14.9199C14.5491 15.0576 14.6336 15.0826 14.7494 14.9856C14.85 14.9054 14.9451 14.8186 15.0342 14.7258C15.3847 14.3721 15.4098 14.4597 15.0592 14.0465C14.6969 13.6507 14.3885 13.2087 14.1422 12.7319C14.1167 12.6928 14.1003 12.6485 14.0942 12.6022C14.088 12.5559 14.0923 12.5088 14.1067 12.4644C14.1211 12.42 14.1453 12.3793 14.1774 12.3455C14.2096 12.3116 14.2489 12.2853 14.2925 12.2686C14.3327 12.2484 14.3768 12.237 14.4217 12.2353C14.4667 12.2337 14.5116 12.2417 14.5531 12.259C14.5947 12.2762 14.6321 12.3022 14.6628 12.3352C14.6934 12.3682 14.7165 12.4074 14.7306 12.4502C14.9759 12.9162 15.2845 13.346 15.6476 13.7273C15.7697 13.8681 15.8354 13.865 15.9418 13.7116C16.2203 13.3047 16.5114 12.9009 16.7711 12.4815C17.091 11.9794 17.3485 11.4401 17.5379 10.8757C17.5817 10.738 17.5379 10.6973 17.4096 10.6817C17.3689 10.6817 17.3251 10.6817 17.2844 10.6817H15.3472ZM12.953 18.6416H11.6385C11.4414 18.6416 11.3944 18.7073 11.4633 18.892C11.7199 19.5827 11.9796 20.2745 12.2425 20.9673C12.3177 21.1645 12.3834 21.177 12.518 21.0205C13.1439 20.3172 13.7604 19.6109 14.3676 18.9014C14.4046 18.842 14.4301 18.7761 14.4427 18.7073C14.3827 18.6767 14.3183 18.6556 14.2518 18.6447C13.8168 18.6384 13.3817 18.6416 12.9498 18.6416H12.953Z"/>
</mask>
<path d="M21.3905 13.455V20.0877C21.393 20.6373 21.1778 21.1655 20.7918 21.5568C20.4059 21.9481 19.8807 22.1705 19.3312 22.1755H12.2582C12.1742 22.1852 12.0895 22.1633 12.0207 22.1142C11.9519 22.065 11.9038 21.992 11.8858 21.9094C11.5039 20.8733 11.1159 19.8404 10.734 18.8043C10.6777 18.6541 10.5744 18.6384 10.4399 18.6384H2.55625C2.26978 18.6476 1.98448 18.5979 1.71798 18.4924C1.45147 18.3869 1.2094 18.2279 1.00674 18.0253C0.804073 17.8226 0.645126 17.5805 0.539676 17.3139C0.434226 17.0474 0.384513 16.762 0.393642 16.4755C0.393642 14.3637 0.393642 12.2509 0.393642 10.137V3.33213C0.381809 2.89116 0.511221 2.45795 0.762958 2.09573C0.951587 1.81184 1.20809 1.57955 1.50923 1.41994C1.81037 1.26033 2.14659 1.17845 2.48738 1.18174C4.81898 1.18174 7.15059 1.18174 9.48218 1.18174C9.73881 1.18174 9.82018 1.24434 9.90468 1.49475C10.2469 2.48804 10.5859 3.47821 10.9218 4.46524C11.0126 4.72817 11.0094 4.72817 11.2974 4.72817H19.1685C19.5449 4.71275 19.9189 4.79469 20.2545 4.96606C20.599 5.13551 20.8884 5.39932 21.089 5.7268C21.2895 6.05428 21.393 6.43197 21.3874 6.81596C21.3874 9.03209 21.3874 11.2482 21.3874 13.4675L21.3905 13.455ZM1.04775 9.92104V16.4943C1.04033 16.6914 1.07359 16.888 1.14544 17.0717C1.21728 17.2554 1.32617 17.4223 1.46534 17.5621C1.6045 17.7019 1.77097 17.8115 1.95434 17.8841C2.13772 17.9567 2.33408 17.9908 2.5312 17.9842H14.5303C14.8026 17.9842 14.8433 17.9404 14.7588 17.6994C14.499 16.9357 14.2424 16.1719 13.9795 15.4081L12.3427 10.6566L9.40081 2.06756C9.31944 1.8328 9.3163 1.8328 9.06593 1.8328H2.55625C2.35471 1.82284 2.15334 1.85536 1.96518 1.92825C1.77702 2.00115 1.60628 2.11279 1.46404 2.25593C1.3218 2.39908 1.21123 2.57053 1.13951 2.75917C1.0678 2.9478 1.03654 3.14941 1.04775 3.35091V9.92104ZM20.7364 13.4518V6.83161C20.7398 6.63939 20.7045 6.44846 20.6326 6.27017C20.5607 6.09188 20.4537 5.92987 20.3179 5.79378C20.1821 5.6577 20.0204 5.55032 19.8423 5.47802C19.6642 5.40573 19.4733 5.37 19.2811 5.37297H11.5196C11.2692 5.37297 11.2442 5.41053 11.3256 5.64842L12.7621 9.84592C12.8372 10.0619 12.8372 10.0619 13.075 10.0337C13.1271 10.0306 13.1794 10.0306 13.2315 10.0337H15.2032C15.4066 10.0337 15.4473 9.99304 15.4473 9.78332C15.4473 9.68629 15.4473 9.58612 15.4473 9.48595C15.4473 9.40045 15.4813 9.31844 15.5417 9.25798C15.6022 9.19752 15.6842 9.16355 15.7697 9.16355C15.8551 9.16355 15.9371 9.19752 15.9976 9.25798C16.058 9.31844 16.092 9.40045 16.092 9.48595C16.092 9.58299 16.092 9.68315 16.092 9.79897C16.092 10.0024 16.1358 10.0431 16.3393 10.0431H19.2498C19.4877 10.0431 19.6254 10.1621 19.6285 10.3561C19.6317 10.5502 19.4908 10.6879 19.2436 10.6911H18.4299C18.407 10.688 18.3837 10.6896 18.3615 10.6957C18.3392 10.7018 18.3185 10.7123 18.3004 10.7266C18.2823 10.7409 18.2672 10.7587 18.2561 10.779C18.245 10.7992 18.2381 10.8215 18.2358 10.8444C18.2084 10.967 18.1718 11.0873 18.1263 11.2044C17.7091 12.2974 17.1207 13.317 16.3831 14.225C16.2641 14.3783 16.261 14.4096 16.405 14.538L17.9542 16.0623C18.0516 16.1494 18.1446 16.2413 18.2327 16.3378C18.2864 16.3957 18.3162 16.4717 18.3162 16.5506C18.3162 16.6296 18.2864 16.7056 18.2327 16.7635C18.1775 16.8243 18.1007 16.861 18.0187 16.8657C17.9368 16.8704 17.8563 16.8427 17.7945 16.7885C17.7163 16.7259 17.6443 16.6602 17.5723 16.5913L16.0075 15.0263C15.8542 14.8729 15.8479 14.8729 15.6945 15.0263C15.4661 15.2391 15.2439 15.4582 15.0029 15.6523C14.9539 15.6859 14.9183 15.7357 14.9023 15.7929C14.8863 15.8501 14.8909 15.9111 14.9153 15.9653C15.1656 16.6821 15.4066 17.402 15.6601 18.1188C15.6897 18.1912 15.6975 18.2707 15.6825 18.3475C15.6675 18.4242 15.6303 18.4949 15.5756 18.5508C14.8141 19.4147 14.0546 20.2807 13.2972 21.1488C13.238 21.2338 13.1906 21.3265 13.1564 21.4242C13.2573 21.4611 13.3625 21.4853 13.4694 21.4962C14.1297 21.4962 14.7932 21.4962 15.4536 21.4962C16.7273 21.4962 18.0011 21.4962 19.2717 21.4962C19.4758 21.5082 19.6801 21.4766 19.8711 21.4037C20.0621 21.3307 20.2353 21.218 20.3795 21.0729C20.5236 20.9279 20.6352 20.7539 20.707 20.5625C20.7788 20.371 20.8091 20.1665 20.7959 19.9625L20.7364 13.4518ZM15.3472 10.6817H14.5021C14.089 10.6817 13.679 10.6817 13.2659 10.6817C13.1032 10.6817 13.0719 10.7317 13.1188 10.8726C13.5799 12.2227 14.041 13.5718 14.5021 14.9199C14.5491 15.0576 14.6336 15.0826 14.7494 14.9856C14.85 14.9054 14.9451 14.8186 15.0342 14.7258C15.3847 14.3721 15.4098 14.4597 15.0592 14.0465C14.6969 13.6507 14.3885 13.2087 14.1422 12.7319C14.1167 12.6928 14.1003 12.6485 14.0942 12.6022C14.088 12.5559 14.0923 12.5088 14.1067 12.4644C14.1211 12.42 14.1453 12.3793 14.1774 12.3455C14.2096 12.3116 14.2489 12.2853 14.2925 12.2686C14.3327 12.2484 14.3768 12.237 14.4217 12.2353C14.4667 12.2337 14.5116 12.2417 14.5531 12.259C14.5947 12.2762 14.6321 12.3022 14.6628 12.3352C14.6934 12.3682 14.7165 12.4074 14.7306 12.4502C14.9759 12.9162 15.2845 13.346 15.6476 13.7273C15.7697 13.8681 15.8354 13.865 15.9418 13.7116C16.2203 13.3047 16.5114 12.9009 16.7711 12.4815C17.091 11.9794 17.3485 11.4401 17.5379 10.8757C17.5817 10.738 17.5379 10.6973 17.4096 10.6817C17.3689 10.6817 17.3251 10.6817 17.2844 10.6817H15.3472ZM12.953 18.6416H11.6385C11.4414 18.6416 11.3944 18.7073 11.4633 18.892C11.7199 19.5827 11.9796 20.2745 12.2425 20.9673C12.3177 21.1645 12.3834 21.177 12.518 21.0205C13.1439 20.3172 13.7604 19.6109 14.3676 18.9014C14.4046 18.842 14.4301 18.7761 14.4427 18.7073C14.3827 18.6767 14.3183 18.6556 14.2518 18.6447C13.8168 18.6384 13.3817 18.6416 12.9498 18.6416H12.953Z" fill="#B10000"/>
<path d="M21.3905 13.455V20.0877C21.393 20.6373 21.1778 21.1655 20.7918 21.5568C20.4059 21.9481 19.8807 22.1705 19.3312 22.1755H12.2582C12.1742 22.1852 12.0895 22.1633 12.0207 22.1142C11.9519 22.065 11.9038 21.992 11.8858 21.9094C11.5039 20.8733 11.1159 19.8404 10.734 18.8043C10.6777 18.6541 10.5744 18.6384 10.4399 18.6384H2.55625C2.26978 18.6476 1.98448 18.5979 1.71798 18.4924C1.45147 18.3869 1.2094 18.2279 1.00674 18.0253C0.804073 17.8226 0.645126 17.5805 0.539676 17.3139C0.434226 17.0474 0.384513 16.762 0.393642 16.4755C0.393642 14.3637 0.393642 12.2509 0.393642 10.137V3.33213C0.381809 2.89116 0.511221 2.45795 0.762958 2.09573C0.951587 1.81184 1.20809 1.57955 1.50923 1.41994C1.81037 1.26033 2.14659 1.17845 2.48738 1.18174C4.81898 1.18174 7.15059 1.18174 9.48218 1.18174C9.73881 1.18174 9.82018 1.24434 9.90468 1.49475C10.2469 2.48804 10.5859 3.47821 10.9218 4.46524C11.0126 4.72817 11.0094 4.72817 11.2974 4.72817H19.1685C19.5449 4.71275 19.9189 4.79469 20.2545 4.96606C20.599 5.13551 20.8884 5.39932 21.089 5.7268C21.2895 6.05428 21.393 6.43197 21.3874 6.81596C21.3874 9.03209 21.3874 11.2482 21.3874 13.4675L21.3905 13.455ZM1.04775 9.92104V16.4943C1.04033 16.6914 1.07359 16.888 1.14544 17.0717C1.21728 17.2554 1.32617 17.4223 1.46534 17.5621C1.6045 17.7019 1.77097 17.8115 1.95434 17.8841C2.13772 17.9567 2.33408 17.9908 2.5312 17.9842H14.5303C14.8026 17.9842 14.8433 17.9404 14.7588 17.6994C14.499 16.9357 14.2424 16.1719 13.9795 15.4081L12.3427 10.6566L9.40081 2.06756C9.31944 1.8328 9.3163 1.8328 9.06593 1.8328H2.55625C2.35471 1.82284 2.15334 1.85536 1.96518 1.92825C1.77702 2.00115 1.60628 2.11279 1.46404 2.25593C1.3218 2.39908 1.21123 2.57053 1.13951 2.75917C1.0678 2.9478 1.03654 3.14941 1.04775 3.35091V9.92104ZM20.7364 13.4518V6.83161C20.7398 6.63939 20.7045 6.44846 20.6326 6.27017C20.5607 6.09188 20.4537 5.92987 20.3179 5.79378C20.1821 5.6577 20.0204 5.55032 19.8423 5.47802C19.6642 5.40573 19.4733 5.37 19.2811 5.37297H11.5196C11.2692 5.37297 11.2442 5.41053 11.3256 5.64842L12.7621 9.84592C12.8372 10.0619 12.8372 10.0619 13.075 10.0337C13.1271 10.0306 13.1794 10.0306 13.2315 10.0337H15.2032C15.4066 10.0337 15.4473 9.99304 15.4473 9.78332C15.4473 9.68629 15.4473 9.58612 15.4473 9.48595C15.4473 9.40045 15.4813 9.31844 15.5417 9.25798C15.6022 9.19752 15.6842 9.16355 15.7697 9.16355C15.8551 9.16355 15.9371 9.19752 15.9976 9.25798C16.058 9.31844 16.092 9.40045 16.092 9.48595C16.092 9.58299 16.092 9.68315 16.092 9.79897C16.092 10.0024 16.1358 10.0431 16.3393 10.0431H19.2498C19.4877 10.0431 19.6254 10.1621 19.6285 10.3561C19.6317 10.5502 19.4908 10.6879 19.2436 10.6911H18.4299C18.407 10.688 18.3837 10.6896 18.3615 10.6957C18.3392 10.7018 18.3185 10.7123 18.3004 10.7266C18.2823 10.7409 18.2672 10.7587 18.2561 10.779C18.245 10.7992 18.2381 10.8215 18.2358 10.8444C18.2084 10.967 18.1718 11.0873 18.1263 11.2044C17.7091 12.2974 17.1207 13.317 16.3831 14.225C16.2641 14.3783 16.261 14.4096 16.405 14.538L17.9542 16.0623C18.0516 16.1494 18.1446 16.2413 18.2327 16.3378C18.2864 16.3957 18.3162 16.4717 18.3162 16.5506C18.3162 16.6296 18.2864 16.7056 18.2327 16.7635C18.1775 16.8243 18.1007 16.861 18.0187 16.8657C17.9368 16.8704 17.8563 16.8427 17.7945 16.7885C17.7163 16.7259 17.6443 16.6602 17.5723 16.5913L16.0075 15.0263C15.8542 14.8729 15.8479 14.8729 15.6945 15.0263C15.4661 15.2391 15.2439 15.4582 15.0029 15.6523C14.9539 15.6859 14.9183 15.7357 14.9023 15.7929C14.8863 15.8501 14.8909 15.9111 14.9153 15.9653C15.1656 16.6821 15.4066 17.402 15.6601 18.1188C15.6897 18.1912 15.6975 18.2707 15.6825 18.3475C15.6675 18.4242 15.6303 18.4949 15.5756 18.5508C14.8141 19.4147 14.0546 20.2807 13.2972 21.1488C13.238 21.2338 13.1906 21.3265 13.1564 21.4242C13.2573 21.4611 13.3625 21.4853 13.4694 21.4962C14.1297 21.4962 14.7932 21.4962 15.4536 21.4962C16.7273 21.4962 18.0011 21.4962 19.2717 21.4962C19.4758 21.5082 19.6801 21.4766 19.8711 21.4037C20.0621 21.3307 20.2353 21.218 20.3795 21.0729C20.5236 20.9279 20.6352 20.7539 20.707 20.5625C20.7788 20.371 20.8091 20.1665 20.7959 19.9625L20.7364 13.4518ZM15.3472 10.6817H14.5021C14.089 10.6817 13.679 10.6817 13.2659 10.6817C13.1032 10.6817 13.0719 10.7317 13.1188 10.8726C13.5799 12.2227 14.041 13.5718 14.5021 14.9199C14.5491 15.0576 14.6336 15.0826 14.7494 14.9856C14.85 14.9054 14.9451 14.8186 15.0342 14.7258C15.3847 14.3721 15.4098 14.4597 15.0592 14.0465C14.6969 13.6507 14.3885 13.2087 14.1422 12.7319C14.1167 12.6928 14.1003 12.6485 14.0942 12.6022C14.088 12.5559 14.0923 12.5088 14.1067 12.4644C14.1211 12.42 14.1453 12.3793 14.1774 12.3455C14.2096 12.3116 14.2489 12.2853 14.2925 12.2686C14.3327 12.2484 14.3768 12.237 14.4217 12.2353C14.4667 12.2337 14.5116 12.2417 14.5531 12.259C14.5947 12.2762 14.6321 12.3022 14.6628 12.3352C14.6934 12.3682 14.7165 12.4074 14.7306 12.4502C14.9759 12.9162 15.2845 13.346 15.6476 13.7273C15.7697 13.8681 15.8354 13.865 15.9418 13.7116C16.2203 13.3047 16.5114 12.9009 16.7711 12.4815C17.091 11.9794 17.3485 11.4401 17.5379 10.8757C17.5817 10.738 17.5379 10.6973 17.4096 10.6817C17.3689 10.6817 17.3251 10.6817 17.2844 10.6817H15.3472ZM12.953 18.6416H11.6385C11.4414 18.6416 11.3944 18.7073 11.4633 18.892C11.7199 19.5827 11.9796 20.2745 12.2425 20.9673C12.3177 21.1645 12.3834 21.177 12.518 21.0205C13.1439 20.3172 13.7604 19.6109 14.3676 18.9014C14.4046 18.842 14.4301 18.7761 14.4427 18.7073C14.3827 18.6767 14.3183 18.6556 14.2518 18.6447C13.8168 18.6384 13.3817 18.6416 12.9498 18.6416H12.953Z" stroke="#B10000" stroke-width="0.5" mask="url(#path-1-outside-1_11_46319)"/>
<path d="M6.46847 10.8037L6.46995 10.7974L3.9491 12.9418C3.93861 12.9882 3.93885 13.0364 3.94981 13.0828C3.96076 13.1291 3.98215 13.1723 4.01233 13.2092C4.0425 13.246 4.08068 13.2754 4.12396 13.2953C4.16723 13.3151 4.21447 13.3248 4.26206 13.3236V13.4486C4.26256 13.4486 4.26305 13.4486 4.26355 13.4486C4.36846 13.4484 4.46611 13.4262 4.54892 13.3551C4.62694 13.288 4.6766 13.1899 4.71777 13.0746L4.7178 13.0745C4.77664 12.9094 4.83568 12.7443 4.89475 12.579C5.0931 12.0242 5.29184 11.4682 5.48494 10.9105L5.48747 10.9032L5.48908 10.8957C5.49536 10.8662 5.51255 10.8402 5.5372 10.823C5.56184 10.8057 5.59211 10.7984 5.62193 10.8025L5.63048 10.8037H5.6391H5.64073H5.64237H5.644H5.64563H5.64726H5.64889H5.65053H5.65216H5.65379H5.65542H5.65705H5.65868H5.66031H5.66194H5.66358H5.66521H5.66684H5.66847H5.6701H5.67173H5.67336H5.67499H5.67662H5.67825H5.67988H5.68151H5.68314H5.68477H5.6864H5.68803H5.68966H5.69129H5.69292H5.69455H5.69618H5.69781H5.69944H5.70107H5.7027H5.70433H5.70596H5.70759H5.70922H5.71085H5.71248H5.7141H5.71573H5.71736H5.71899H5.72062H5.72225H5.72388H5.72551H5.72713H5.72876H5.73039H5.73202H5.73365H5.73527H5.7369H5.73853H5.74016H5.74179H5.74341H5.74504H5.74667H5.7483H5.74993H5.75155H5.75318H5.75481H5.75643H5.75806H5.75969H5.76132H5.76294H5.76457H5.7662H5.76782H5.76945H5.77108H5.7727H5.77433H5.77596H5.77758H5.77921H5.78084H5.78246H5.78409H5.78572H5.78734H5.78897H5.79059H5.79222H5.79385H5.79547H5.7971H5.79872H5.80035H5.80198H5.8036H5.80523H5.80685H5.80848H5.8101H5.81173H5.81335H5.81498H5.8166H5.81823H5.81985H5.82148H5.8231H5.82473H5.82635H5.82798H5.8296H5.83123H5.83285H5.83448H5.8361H5.83773H5.83935H5.84097H5.8426H5.84422H5.84585H5.84747H5.84909H5.85072H5.85234H5.85397H5.85559H5.85721H5.85884H5.86046H5.86208H5.86371H5.86533H5.86696H5.86858H5.8702H5.87183H5.87345H5.87507H5.87669H5.87832H5.87994H5.88156H5.88319H5.88481H5.88643H5.88806H5.88968H5.8913H5.89292H5.89455H5.89617H5.89779H5.89941H5.90104H5.90266H5.90428H5.9059H5.90753H5.90915H5.91077H5.91239H5.91401H5.91564H5.91726H5.91888H5.9205H5.92212H5.92374H5.92537H5.92699H5.92861H5.93023H5.93185H5.93347H5.9351H5.93672H5.93834H5.93996H5.94158H5.9432H5.94482H5.94644H5.94806H5.94969H5.95131H5.95293H5.95455H5.95617H5.95779H5.95941H5.96103H5.96265H5.96427H5.96589H5.96751H5.96913H5.97075H5.97237H5.97399H5.97562H5.97724H5.97886H5.98048H5.9821H5.98372H5.98534H5.98696H5.98858H5.9902H5.99182H5.99344H5.99506H5.99668H5.99829H5.99991H6.00153H6.00315H6.00477H6.00639H6.00801H6.00963H6.01125H6.01287H6.01449H6.01611H6.01773H6.01935H6.02097H6.02259H6.0242H6.02582H6.02744H6.02906H6.03068H6.0323H6.03392H6.03554H6.03716H6.03877H6.04039H6.04201H6.04363H6.04525H6.04687H6.04849H6.0501H6.05172H6.05334H6.05496H6.05658H6.0582H6.05981H6.06143H6.06305H6.06467H6.06629H6.06791H6.06952H6.07114H6.07276H6.07438H6.07599H6.07761H6.07923H6.08085H6.08247H6.08408H6.0857H6.08732H6.08894H6.09055H6.09217H6.09379H6.09541H6.09702H6.09864H6.10026H6.10188H6.10349H6.10511H6.10673H6.10835H6.10996H6.11158H6.1132H6.11481H6.11643H6.11805H6.11967H6.12128H6.1229H6.12452H6.12613H6.12775H6.12937H6.13098H6.1326H6.13422H6.13583H6.13745H6.13907H6.14068H6.1423H6.14392H6.14553H6.14715H6.14877H6.15038H6.152H6.15362H6.15523H6.15685H6.15847H6.16008H6.1617H6.16331H6.16493H6.16655H6.16816H6.16978H6.1714H6.17301H6.17463H6.17624H6.17786H6.17948H6.18109H6.18271H6.18432H6.18594H6.18756H6.18917H6.19079H6.1924H6.19402H6.19563H6.19725H6.19887H6.20048H6.2021H6.20371H6.20533H6.20694H6.20856H6.21018H6.21179H6.21341H6.21502H6.21664H6.21825H6.21987H6.22148H6.2231H6.22471H6.22633H6.22794H6.22956H6.23118H6.23279H6.23441H6.23602H6.23764H6.23925H6.24087H6.24248H6.2441H6.24571H6.24733H6.24894H6.25056H6.25217H6.25379H6.2554H6.25702H6.25863H6.26025H6.26186H6.26348H6.26509H6.26671H6.26832H6.26994H6.27155H6.27317H6.27478H6.2764H6.27801H6.27962H6.28124H6.28285H6.28447H6.28608H6.2877H6.28931H6.29093H6.29254H6.29416H6.29577H6.29739H6.299H6.30061H6.30223H6.30384H6.30546H6.30707H6.30869H6.3103H6.31192H6.31353H6.31514H6.31676H6.31837H6.31999H6.3216H6.32322H6.32483H6.32644H6.32806H6.32967H6.33129H6.3329H6.33452H6.33613H6.33774H6.33936H6.34097H6.34259H6.3442H6.34582H6.34743H6.34904H6.35066H6.35227H6.35389H6.3555H6.35711H6.35873H6.36034H6.36196H6.36357H6.36518H6.3668H6.36841H6.37003H6.37164H6.37325H6.37487H6.37648H6.3781H6.37971H6.38132H6.38294H6.38455H6.38617H6.38778H6.38939H6.39101H6.39262H6.39424H6.39585H6.39746H6.39908H6.40069H6.4023H6.40392H6.40553H6.40715H6.40876H6.41037H6.41199H6.4136H6.41522H6.41683H6.41844H6.42006H6.42167H6.42328H6.4249H6.42651H6.42813H6.42974H6.43135H6.43297H6.43458H6.43619H6.43781H6.43942H6.44104H6.44265H6.44426H6.44588H6.44749H6.4491H6.45072H6.45233H6.45395H6.45556H6.45717H6.45879H6.4604H6.46201H6.46363H6.46524H6.46686H6.46847ZM7.48778 11.0395C7.58719 11.3164 7.68625 11.5943 7.78547 11.8726C7.93224 12.2842 8.07936 12.6968 8.22851 13.1089C8.24832 13.1653 8.27901 13.2172 8.31881 13.2617C8.35876 13.3064 8.40714 13.3428 8.46116 13.3688C8.51518 13.3949 8.57379 13.41 8.63366 13.4133C8.69353 13.4167 8.75347 13.4082 8.81006 13.3884C8.86665 13.3686 8.9188 13.3378 8.96351 13.2979C9.00822 13.2579 9.04461 13.2095 9.07061 13.1555C9.09662 13.1015 9.11173 13.0429 9.11509 12.983C9.11843 12.9233 9.11004 12.8636 9.09037 12.8071C9.02745 12.6246 8.96148 12.4424 8.89569 12.2638C8.89561 12.2636 8.89553 12.2634 8.89545 12.2631L6.92422 6.73345L6.92422 6.73345L6.9239 6.73256C6.88379 6.62269 6.83031 6.53179 6.74754 6.47089C6.66328 6.40889 6.56599 6.39062 6.46534 6.39062C6.36038 6.39062 6.26323 6.41394 6.18134 6.48129C6.10292 6.54577 6.05334 6.63875 6.01576 6.74621C5.34204 8.62374 4.6704 10.5013 4.00085 12.3788L7.48778 11.0395ZM7.0734 9.8278L7.07339 9.8278L7.07394 9.82932C7.08543 9.86091 7.09009 9.88225 7.09149 9.89562C7.07722 9.89936 7.05338 9.90262 7.01616 9.90262H6.46847H5.90754C5.88782 9.90183 5.87264 9.90041 5.86112 9.89874C5.86396 9.88772 5.8684 9.87345 5.87517 9.85528L5.87518 9.85528L5.87584 9.85342L5.87596 9.85308C6.06689 9.31464 6.2574 8.77739 6.45721 8.24344L6.45729 8.24347L6.45873 8.23915C6.45984 8.23583 6.46425 8.22713 6.48065 8.20983C6.49788 8.22853 6.50261 8.2374 6.50384 8.24092L6.50382 8.24092L6.50455 8.2429C6.69833 8.76806 6.88899 9.29949 7.0734 9.8278Z" fill="#B10000" stroke="#B10000" stroke-width="0.25"/>
</svg>
