<svg width="39" height="40" viewBox="0 0 39 40" fill="none" xmlns="http://www.w3.org/2000/svg">
<path d="M32.4997 13.9356L22.7497 5.38812C21.8559 4.58869 20.6988 4.14673 19.4997 4.14673C18.3005 4.14673 17.1435 4.58869 16.2497 5.38812L6.49967 13.9356C5.98351 14.3972 5.57163 14.9635 5.29143 15.5968C5.01124 16.23 4.86916 16.9157 4.87467 17.6081V31.8106C4.87467 33.1035 5.38828 34.3435 6.30252 35.2578C7.21676 36.172 8.45674 36.6856 9.74967 36.6856H29.2497C30.5426 36.6856 31.7826 36.172 32.6968 35.2578C33.6111 34.3435 34.1247 33.1035 34.1247 31.8106V17.5919C34.1279 16.9022 33.9847 16.2196 33.7045 15.5893C33.4244 14.9591 33.0138 14.3954 32.4997 13.9356ZM22.7497 33.4356H16.2497V25.3106C16.2497 24.8796 16.4209 24.4663 16.7256 24.1616C17.0304 23.8568 17.4437 23.6856 17.8747 23.6856H21.1247C21.5556 23.6856 21.969 23.8568 22.2737 24.1616C22.5785 24.4663 22.7497 24.8796 22.7497 25.3106V33.4356ZM30.8747 31.8106C30.8747 32.2416 30.7035 32.6549 30.3987 32.9597C30.094 33.2644 29.6806 33.4356 29.2497 33.4356H25.9997V25.3106C25.9997 24.0177 25.4861 22.7777 24.5718 21.8635C23.6576 20.9492 22.4176 20.4356 21.1247 20.4356H17.8747C16.5817 20.4356 15.3418 20.9492 14.4275 21.8635C13.5133 22.7777 12.9997 24.0177 12.9997 25.3106V33.4356H9.74967C9.31869 33.4356 8.90536 33.2644 8.60062 32.9597C8.29587 32.6549 8.12467 32.2416 8.12467 31.8106V17.5919C8.12496 17.3611 8.17438 17.1331 8.26964 16.923C8.36491 16.7128 8.50383 16.5254 8.67717 16.3731L18.4272 7.84187C18.7237 7.58135 19.1049 7.43767 19.4997 7.43767C19.8944 7.43767 20.2756 7.58135 20.5722 7.84187L30.3222 16.3731C30.4955 16.5254 30.6344 16.7128 30.7297 16.923C30.8249 17.1331 30.8744 17.3611 30.8747 17.5919V31.8106Z" fill="#FEFEFE"/>
</svg>
