<svg width="39" height="39" viewBox="0 0 39 39" fill="none" xmlns="http://www.w3.org/2000/svg">
<path d="M32.4999 13.0001L22.7499 4.45257C21.8561 3.65314 20.699 3.21118 19.4999 3.21118C18.3008 3.21118 17.1437 3.65314 16.2499 4.45257L6.49991 13.0001C5.98376 13.4617 5.57187 14.028 5.29168 14.6612C5.01148 15.2945 4.86941 15.9801 4.87491 16.6726V30.8751C4.87491 32.168 5.38852 33.408 6.30276 34.3222C7.217 35.2365 8.45698 35.7501 9.74991 35.7501H29.2499C30.5428 35.7501 31.7828 35.2365 32.6971 34.3222C33.6113 33.408 34.1249 32.168 34.1249 30.8751V16.6563C34.1281 15.9666 33.9849 15.2841 33.7048 14.6538C33.4247 14.0235 33.014 13.4599 32.4999 13.0001ZM22.7499 32.5001H16.2499V24.3751C16.2499 23.9441 16.4211 23.5308 16.7259 23.226C17.0306 22.9213 17.4439 22.7501 17.8749 22.7501H21.1249C21.5559 22.7501 21.9692 22.9213 22.274 23.226C22.5787 23.5308 22.7499 23.9441 22.7499 24.3751V32.5001ZM30.8749 30.8751C30.8749 31.306 30.7037 31.7194 30.399 32.0241C30.0942 32.3289 29.6809 32.5001 29.2499 32.5001H25.9999V24.3751C25.9999 23.0821 25.4863 21.8422 24.5721 20.9279C23.6578 20.0137 22.4178 19.5001 21.1249 19.5001H17.8749C16.582 19.5001 15.342 20.0137 14.4278 20.9279C13.5135 21.8422 12.9999 23.0821 12.9999 24.3751V32.5001H9.74991C9.31893 32.5001 8.90561 32.3289 8.60086 32.0241C8.29612 31.7194 8.12491 31.306 8.12491 30.8751V16.6563C8.1252 16.4256 8.17462 16.1976 8.26989 15.9874C8.36515 15.7773 8.50407 15.5898 8.67741 15.4376L18.4274 6.90632C18.724 6.6458 19.1052 6.50213 19.4999 6.50213C19.8946 6.50213 20.2759 6.6458 20.5724 6.90632L30.3224 15.4376C30.4957 15.5898 30.6347 15.7773 30.7299 15.9874C30.8252 16.1976 30.8746 16.4256 30.8749 16.6563V30.8751Z" fill="#FEFEFE"/>
</svg>
