<svg width="25" height="25" viewBox="0 0 25 25" fill="none" xmlns="http://www.w3.org/2000/svg">
<g clip-path="url(#clip0_11_46051)">
<path d="M24.1265 14.3329C24.127 13.7319 23.8885 13.1717 23.4768 12.7583C23.9443 12.2477 24.1829 11.5629 24.1184 10.8499C24.0025 9.57874 22.8583 8.58177 21.5124 8.58062L15.3354 8.57538C15.6422 7.64662 16.1336 5.94407 16.1348 4.57607C16.1366 2.40707 14.2952 0.574524 13.1382 0.573541C12.1002 0.572659 11.3567 1.15703 11.3256 1.181C11.2066 1.27592 11.1374 1.41986 11.1373 1.57183L11.1344 4.96281L8.24814 11.1994L8.12907 11.2603L8.12923 11.0692C8.12947 10.7932 7.90564 10.569 7.62964 10.5688L2.62967 10.5646C1.25071 10.5634 0.128738 11.6835 0.127567 13.0625L0.120773 21.0625C0.119602 22.4415 1.23966 23.5634 2.61863 23.5646L5.61863 23.5671C6.69962 23.5681 7.6242 22.8788 7.97302 21.9161C8.80469 22.3449 9.92448 22.5708 10.6195 22.5714L19.7985 22.5792C20.8875 22.5801 21.8411 21.8469 22.066 20.8351C22.1814 20.3132 22.1149 19.7882 21.8872 19.332C22.6256 18.9616 23.1232 18.199 23.124 17.332C23.1243 16.978 23.0436 16.6389 22.8908 16.3328C23.6291 15.9614 24.1258 15.1999 24.1265 14.3329ZM22.0164 15.5651C21.8234 15.5879 21.6603 15.7187 21.5982 15.9037C21.537 16.0887 21.5879 16.2917 21.7297 16.4258C21.9835 16.665 22.1243 16.9871 22.124 17.3312C22.1234 17.9621 21.646 18.4918 21.0149 18.5642C20.8219 18.5871 20.6588 18.7179 20.5967 18.9029C20.5355 19.0878 20.5864 19.2908 20.7282 19.425C21.057 19.7352 21.1886 20.1703 21.0892 20.6183C20.9658 21.1762 20.4234 21.5797 19.7994 21.5792L10.6203 21.5714C9.80833 21.5707 8.44665 21.1886 7.97507 20.7151C7.83218 20.573 7.61621 20.5309 7.43015 20.6067C7.2431 20.6835 7.12093 20.8664 7.12075 21.0684C7.12005 21.8954 6.4465 22.5679 5.61948 22.5671L2.61948 22.5646C1.79247 22.5639 1.12005 21.8903 1.12076 21.0633L1.12755 13.0633C1.12825 12.2363 1.80181 11.5639 2.62882 11.5646L7.12882 11.5684L7.1284 12.0684C7.12825 12.2414 7.21811 12.4025 7.36602 12.4946C7.51196 12.5827 7.69594 12.5919 7.852 12.516L8.85241 12.0169C8.95347 11.9669 9.03454 11.883 9.08263 11.7801L12.0881 5.2826C12.1182 5.21663 12.1342 5.14464 12.1343 5.07264L12.1371 1.84366C12.3452 1.72885 12.7063 1.57316 13.1373 1.57353C13.6853 1.57399 15.1362 2.93722 15.1348 4.57522C15.1333 6.33524 14.1731 8.87139 14.1641 8.89642C14.106 9.04937 14.1258 9.2224 14.2187 9.35846C14.3126 9.49354 14.4666 9.57467 14.6305 9.57481L21.5115 9.58066C22.3455 9.58136 23.053 10.179 23.1224 10.941C23.1749 11.5111 22.9004 12.0529 22.4092 12.3554C22.2561 12.4493 22.165 12.6192 22.1718 12.8002C22.1786 12.9812 22.2825 13.1433 22.4424 13.2264C22.8652 13.4418 23.1269 13.866 23.1265 14.332C23.126 14.963 22.6485 15.4926 22.0164 15.5651Z" fill="white"/>
<path d="M7.62892 11.5688C7.35292 11.5685 7.12872 11.7924 7.12848 12.0684L7.12084 21.0684C7.1206 21.3444 7.34443 21.5686 7.62043 21.5688C7.89643 21.569 8.12063 21.3452 8.12087 21.0692L8.12851 12.0692C8.12875 11.7932 7.90492 11.569 7.62892 11.5688Z" fill="white"/>
</g>
<defs>
<clipPath id="clip0_11_46051">
<rect width="24" height="24" fill="white" transform="translate(0.138672 0.0625) rotate(0.0486618)"/>
</clipPath>
</defs>
</svg>
