<svg width="19" height="19" viewBox="0 0 19 19" fill="none" xmlns="http://www.w3.org/2000/svg">
<g clip-path="url(#clip0_11_45988)">
<path d="M18.9248 10.7619C18.9252 10.3111 18.7463 9.89095 18.4376 9.58093C18.7882 9.19799 18.9671 8.68437 18.9188 8.1496C18.8318 7.19626 17.9737 6.44853 16.9642 6.44768L12.3315 6.44374C12.5616 5.74717 12.9302 4.47026 12.931 3.44426C12.9324 1.81751 11.5513 0.4431 10.6836 0.442363C9.90508 0.441702 9.34744 0.879978 9.32419 0.897958C9.23487 0.969144 9.18303 1.0771 9.18293 1.19108L9.18077 3.73431L7.01606 8.41174L6.92676 8.4574L6.92688 8.31414C6.92706 8.10714 6.75919 7.93899 6.55219 7.93881L2.80221 7.93563C1.76799 7.93478 0.92651 8.77483 0.925632 9.80906L0.920536 15.8091C0.919657 16.8433 1.7597 17.6848 2.79393 17.6856L5.04393 17.6876C5.85467 17.6882 6.54811 17.1713 6.80972 16.4493C7.43347 16.7708 8.27332 16.9403 8.79458 16.9408L15.6788 16.9466C16.4956 16.9473 17.2108 16.3974 17.3794 15.6385C17.466 15.2471 17.4161 14.8533 17.2454 14.5112C17.7991 14.2334 18.1724 13.6615 18.1729 13.0112C18.1732 12.7457 18.1126 12.4914 17.9981 12.2618C18.5518 11.9833 18.9243 11.4121 18.9248 10.7619ZM17.3423 11.686C17.1975 11.7031 17.0752 11.8013 17.0286 11.94C16.9827 12.0787 17.0209 12.231 17.1273 12.3316C17.3176 12.511 17.4232 12.7526 17.4229 13.0106C17.4225 13.4838 17.0645 13.881 16.5912 13.9354C16.4464 13.9525 16.3241 14.0506 16.2775 14.1893C16.2316 14.3281 16.2697 14.4803 16.3761 14.5809C16.6227 14.8136 16.7214 15.14 16.6469 15.4759C16.5543 15.8943 16.1475 16.197 15.6795 16.1966L8.79521 16.1908C8.1862 16.1902 7.16495 15.9036 6.81126 15.5486C6.70409 15.442 6.54211 15.4104 6.40257 15.4672C6.26228 15.5249 6.17065 15.662 6.17052 15.8135C6.17 16.4338 5.66483 16.9381 5.04457 16.9376L2.79457 16.9357C2.17431 16.9351 1.67 16.43 1.67052 15.8097L1.67562 9.80969C1.67615 9.18943 2.18131 8.68512 2.80157 8.68565L6.17657 8.68851L6.17625 9.06353C6.17614 9.19329 6.24354 9.31407 6.35447 9.38318C6.46393 9.44926 6.60191 9.45613 6.71896 9.39924L7.46926 9.02486C7.54506 8.98741 7.60586 8.92447 7.64193 8.84726L9.89607 3.97416C9.91861 3.92468 9.93064 3.87069 9.93069 3.81669L9.93275 1.39495C10.0888 1.30885 10.3597 1.19208 10.6829 1.19235C11.094 1.1927 12.1821 2.21512 12.181 3.44362C12.1799 4.76364 11.4598 6.66575 11.4531 6.68452C11.4095 6.79923 11.4243 6.92901 11.494 7.03105C11.5644 7.13236 11.6799 7.19321 11.8028 7.19332L16.9636 7.1977C17.5891 7.19823 18.1197 7.64643 18.1717 8.21798C18.2111 8.64551 18.0053 9.05185 17.6368 9.27878C17.522 9.34917 17.4537 9.47663 17.4588 9.61237C17.4639 9.74811 17.5418 9.86968 17.6618 9.93204C17.9789 10.0936 18.1751 10.4117 18.1748 10.7612C18.1744 11.2345 17.8164 11.6317 17.3423 11.686Z" fill="black"/>
<path d="M6.55177 8.6888C6.34477 8.68862 6.17662 8.85649 6.17644 9.06349L6.17071 15.8135C6.17053 16.0205 6.3384 16.1886 6.5454 16.1888C6.7524 16.189 6.92055 16.0211 6.92073 15.8141L6.92646 9.06413C6.92664 8.85713 6.75877 8.68897 6.55177 8.6888Z" fill="black"/>
</g>
<defs>
<clipPath id="clip0_11_45988">
<rect width="18" height="18" fill="white" transform="translate(0.934082 0.059082) rotate(0.0486618)"/>
</clipPath>
</defs>
</svg>
