<svg width="19" height="19" viewBox="0 0 19 19" fill="none" xmlns="http://www.w3.org/2000/svg">
<g clip-path="url(#clip0_11_45969)">
<path d="M18.0933 10.7619C18.0937 10.3111 17.9148 9.89095 17.606 9.58093C17.9566 9.19799 18.1356 8.68437 18.0872 8.1496C18.0003 7.19626 17.1422 6.44853 16.1327 6.44768L11.5 6.44374C11.73 5.74717 12.0986 4.47026 12.0995 3.44426C12.1009 1.81751 10.7198 0.4431 9.85204 0.442363C9.07354 0.441702 8.5159 0.879978 8.49265 0.897958C8.40333 0.969144 8.35148 1.0771 8.35139 1.19108L8.34923 3.73431L6.18452 8.41174L6.09522 8.4574L6.09534 8.31414C6.09551 8.10714 5.92764 7.93899 5.72064 7.93881L1.97067 7.93563C0.936442 7.93478 0.0949669 8.77483 0.0940885 9.80906L0.0889927 15.8091C0.0881143 16.8433 0.928162 17.6848 1.96239 17.6856L4.21239 17.6876C5.02313 17.6882 5.71656 17.1713 5.97818 16.4493C6.60193 16.7708 7.44177 16.9403 7.96303 16.9408L14.8473 16.9466C15.664 16.9473 16.3793 16.3974 16.5479 15.6385C16.6345 15.2471 16.5846 14.8533 16.4139 14.5112C16.9676 14.2334 17.3408 13.6615 17.3414 13.0112C17.3416 12.7457 17.2811 12.4914 17.1665 12.2618C17.7203 11.9833 18.0927 11.4121 18.0933 10.7619ZM16.5107 11.686C16.366 11.7031 16.2436 11.8013 16.197 11.94C16.1512 12.0787 16.1893 12.231 16.2957 12.3316C16.4861 12.511 16.5916 12.7526 16.5914 13.0106C16.591 13.4838 16.2329 13.881 15.7596 13.9354C15.6149 13.9525 15.4925 14.0506 15.4459 14.1893C15.4001 14.3281 15.4382 14.4803 15.5446 14.5809C15.7912 14.8136 15.8899 15.14 15.8153 15.4759C15.7227 15.8943 15.316 16.197 14.848 16.1966L7.96367 16.1908C7.35466 16.1902 6.3334 15.9036 5.97972 15.5486C5.87254 15.442 5.71057 15.4104 5.57102 15.4672C5.43074 15.5249 5.33911 15.662 5.33898 15.8135C5.33845 16.4338 4.83329 16.9381 4.21302 16.9376L1.96302 16.9357C1.34276 16.9351 0.838454 16.43 0.838981 15.8097L0.844077 9.80969C0.844603 9.18943 1.34977 8.68512 1.97003 8.68565L5.34503 8.68851L5.34471 9.06353C5.3446 9.19329 5.412 9.31407 5.52293 9.38318C5.63238 9.44926 5.77037 9.45613 5.88742 9.39924L6.63772 9.02486C6.71352 8.98741 6.77432 8.92447 6.81038 8.84726L9.06452 3.97416C9.08707 3.92468 9.0991 3.87069 9.09915 3.81669L9.1012 1.39495C9.2573 1.30885 9.52817 1.19208 9.8514 1.19235C10.2624 1.1927 11.3505 2.21512 11.3495 3.44362C11.3484 4.76364 10.6283 6.66575 10.6215 6.68452C10.5779 6.79923 10.5928 6.92901 10.6625 7.03105C10.7329 7.13236 10.8483 7.19321 10.9713 7.19332L16.1321 7.1977C16.7576 7.19823 17.2882 7.64643 17.3402 8.21798C17.3796 8.64551 17.1737 9.05185 16.8053 9.27878C16.6905 9.34917 16.6221 9.47663 16.6273 9.61237C16.6324 9.74811 16.7103 9.86968 16.8302 9.93204C17.1473 10.0936 17.3436 10.4117 17.3433 10.7612C17.3429 11.2345 16.9848 11.6317 16.5107 11.686Z" fill="black"/>
<path d="M5.72023 8.6888C5.51323 8.68862 5.34507 8.85649 5.3449 9.06349L5.33916 15.8135C5.33899 16.0205 5.50686 16.1886 5.71386 16.1888C5.92086 16.189 6.08901 16.0211 6.08919 15.8141L6.09492 9.06413C6.0951 8.85713 5.92723 8.68897 5.72023 8.6888Z" fill="black"/>
</g>
<defs>
<clipPath id="clip0_11_45969">
<rect width="18" height="18" fill="white" transform="translate(0.102539 0.059082) rotate(0.0486618)"/>
</clipPath>
</defs>
</svg>
