<svg width="44" height="44" viewBox="0 0 44 44" fill="none" xmlns="http://www.w3.org/2000/svg">
<path d="M13.7511 16.5C13.7507 16.5 13.7504 16.5 13.75 16.5H6.4167C5.91069 16.4997 5.50036 16.9096 5.50003 17.4155C5.50003 17.416 5.50003 17.4163 5.50003 17.4167V39.4167C5.49969 39.9227 5.90969 40.333 6.41558 40.3333C6.41602 40.3333 6.41636 40.3333 6.4167 40.3333H13.75C14.256 40.3337 14.6664 39.9237 14.6667 39.4177C14.6667 39.4173 14.6667 39.417 14.6667 39.4167V17.4167C14.667 16.9107 14.257 16.5003 13.7511 16.5ZM12.8334 38.5H7.33336V18.3333H12.8334V38.5ZM33 16.5C31.0112 16.5001 29.0779 17.1565 27.5 18.3673V17.4167C27.5004 16.9107 27.0904 16.5003 26.5845 16.5C26.584 16.5 26.5837 16.5 26.5834 16.5H19.25C18.744 16.4997 18.3337 16.9096 18.3334 17.4155C18.3334 17.416 18.3334 17.4163 18.3334 17.4167V39.4167C18.333 39.9227 18.743 40.333 19.249 40.3333C19.2494 40.3333 19.2497 40.3333 19.25 40.3333H26.5834C27.0894 40.3337 27.4997 39.9237 27.5 39.4177C27.5 39.4173 27.5 39.417 27.5 39.4167V29.3333C27.5 27.8145 28.7312 26.5833 30.25 26.5833C31.7688 26.5833 33 27.8145 33 29.3333V39.4167C32.9997 39.9227 33.4097 40.333 33.9157 40.3333C33.916 40.3333 33.9164 40.3333 33.9167 40.3333H41.25C41.756 40.3337 42.1664 39.9237 42.1667 39.4177C42.1667 39.4173 42.1667 39.417 42.1667 39.4167V25.6667C42.1608 20.6065 38.0602 16.5059 33 16.5ZM40.3334 38.5H34.8334V29.3333C34.8334 26.802 32.7814 24.75 30.25 24.75C27.7187 24.75 25.6667 26.802 25.6667 29.3333V38.5H20.1667V18.3333H25.6667V20.5391C25.6667 20.9286 25.9131 21.2755 26.2809 21.4038C26.6478 21.5361 27.0583 21.4185 27.2996 21.112C29.7976 17.9462 34.389 17.4049 37.5548 19.903C39.3182 21.2946 40.3431 23.4203 40.3334 25.6667V38.5ZM10.758 3.67001C10.5424 3.65491 10.326 3.65379 10.1102 3.66666C7.34321 3.47766 4.94692 5.56758 4.75792 8.33459C4.75031 8.44592 4.74651 8.55737 4.74629 8.66894C4.72245 11.4124 6.92717 13.6558 9.67068 13.6796C9.78269 13.6806 9.89459 13.6777 10.0064 13.6711H10.0583C12.82 13.8644 15.2154 11.7822 15.4087 9.02041C15.6019 6.25866 13.5197 3.86326 10.758 3.67001ZM10.6947 11.843C10.4829 11.8625 10.2697 11.8608 10.0583 11.8378H10.0064C8.2535 11.9725 6.72341 10.6608 6.58868 8.90795C6.45396 7.15518 7.76562 5.62498 9.5185 5.49026C9.71567 5.47515 9.91373 5.47839 10.1102 5.49999C11.8618 5.33863 13.4125 6.6277 13.574 8.37923C13.7354 10.1309 12.4463 11.6817 10.6947 11.843Z" fill="#B10000"/>
</svg>
