<svg width="27" height="28" viewBox="0 0 27 28" fill="none" xmlns="http://www.w3.org/2000/svg">
<path d="M18 10.5V8.16667C18 6.92899 17.5259 5.742 16.682 4.86683C15.8381 3.99167 14.6935 3.5 13.5 3.5C12.3065 3.5 11.1619 3.99167 10.318 4.86683C9.47411 5.742 9 6.92899 9 8.16667V10.5M15.1875 16.9167C15.1875 17.2628 15.0885 17.6011 14.9031 17.8889C14.7177 18.1767 14.4541 18.401 14.1458 18.5335C13.8374 18.6659 13.4981 18.7006 13.1708 18.633C12.8434 18.5655 12.5428 18.3988 12.3068 18.1541C12.0708 17.9094 11.91 17.5975 11.8449 17.2581C11.7798 16.9186 11.8132 16.5667 11.941 16.247C12.0687 15.9272 12.285 15.6539 12.5625 15.4616C12.84 15.2693 13.1662 15.1667 13.5 15.1667C13.9476 15.1667 14.3768 15.351 14.6932 15.6792C15.0097 16.0074 15.1875 16.4525 15.1875 16.9167ZM13.5 19.8333V18.6667V19.8333ZM21.375 23.3333V11.6667C21.375 11.3572 21.2565 11.0605 21.0455 10.8417C20.8345 10.6229 20.5484 10.5 20.25 10.5H6.75C6.45163 10.5 6.16548 10.6229 5.95451 10.8417C5.74353 11.0605 5.625 11.3572 5.625 11.6667V23.3333C5.625 23.6428 5.74353 23.9395 5.95451 24.1583C6.16548 24.3771 6.45163 24.5 6.75 24.5H20.25C20.5484 24.5 20.8345 24.3771 21.0455 24.1583C21.2565 23.9395 21.375 23.6428 21.375 23.3333Z" stroke="#1C2126" stroke-width="2" stroke-linecap="round" stroke-linejoin="round"/>
</svg>
