<svg width="21" height="21" viewBox="0 0 21 21" fill="none" xmlns="http://www.w3.org/2000/svg">
<g clip-path="url(#clip0_11_46278)">
<path d="M19.5604 10.1818L17.527 7.86509L17.8104 4.79842L14.8021 4.11509L13.227 1.46509L10.3937 2.68175L7.56038 1.46509L5.98538 4.11509L2.97705 4.79009L3.26038 7.85675L1.22705 10.1818L3.26038 12.4984L2.97705 15.5734L5.98538 16.2568L7.56038 18.9068L10.3937 17.6818L13.227 18.8984L14.8021 16.2484L17.8104 15.5651L17.527 12.4984L19.5604 10.1818ZM15.802 11.9401L16.0187 14.2651L13.7354 14.7818L12.5437 16.7901L10.3937 15.8651L8.24372 16.7901L7.05205 14.7818L4.76872 14.2651L4.98538 11.9318L3.44372 10.1818L4.98538 8.41509L4.76872 6.09842L7.05205 5.59009L8.24372 3.58175L10.3937 4.49842L12.5437 3.57342L13.7354 5.58175L16.0187 6.09842L15.802 8.42342L17.3437 10.1818L15.802 11.9401ZM9.56038 12.6818H11.227V14.3484H9.56038V12.6818ZM9.56038 6.01509H11.227V11.0151H9.56038V6.01509Z" fill="#B10000"/>
</g>
<defs>
<clipPath id="clip0_11_46278">
<rect width="20" height="20" fill="white" transform="translate(0.393555 0.181641)"/>
</clipPath>
</defs>
</svg>
