<svg width="40" height="41" viewBox="0 0 40 41" fill="none" xmlns="http://www.w3.org/2000/svg">
<path d="M32.2993 24.9023C32.6274 25.2307 32.8874 25.6205 33.0647 26.0495C33.242 26.4784 33.3331 26.9381 33.3327 27.4023V27.4023C33.3327 28.3394 32.9604 29.2381 32.2978 29.9007C31.6352 30.5633 30.7364 30.9356 29.7993 30.9356H10.1993C9.26225 30.9356 8.36353 30.5633 7.70091 29.9007C7.03828 29.2381 6.66602 28.3394 6.66602 27.4023V27.4023C6.66561 26.9381 6.75666 26.4784 6.93396 26.0495C7.11126 25.6205 7.37135 25.2307 7.69935 24.9023L9.99935 22.6023V15.9356C9.99935 13.2834 11.0529 10.7399 12.9283 8.86454C14.8036 6.98918 17.3472 5.93561 19.9994 5.93561V5.93561C22.6515 5.93561 25.1951 6.98918 27.0704 8.86454C28.9458 10.7399 29.9993 13.2834 29.9993 15.9356V22.6023L32.2993 24.9023ZM24.9994 30.9356H14.9994C14.9994 32.2617 15.5261 33.5335 16.4638 34.4711C17.4015 35.4088 18.6733 35.9356 19.9994 35.9356C21.3254 35.9356 22.5972 35.4088 23.5349 34.4711C24.4726 33.5335 24.9994 32.2617 24.9994 30.9356Z" stroke="#FEFEFE" stroke-width="2" stroke-linecap="round" stroke-linejoin="round"/>
</svg>
