<svg width="40" height="40" viewBox="0 0 40 40" fill="none" xmlns="http://www.w3.org/2000/svg">
<path d="M32.3001 23.9667C32.6281 24.2951 32.8882 24.6849 33.0655 25.1139C33.2428 25.5428 33.3338 26.0025 33.3334 26.4667V26.4667C33.3334 27.4038 32.9612 28.3025 32.2985 28.9651C31.6359 29.6277 30.7372 30 29.8001 30H10.2001C9.26298 30 8.36427 29.6277 7.70164 28.9651C7.03901 28.3025 6.66675 27.4038 6.66675 26.4667V26.4667C6.66634 26.0025 6.75739 25.5428 6.93469 25.1139C7.11199 24.6849 7.37208 24.2951 7.70008 23.9667L10.0001 21.6667V15C10.0001 12.3478 11.0537 9.8043 12.929 7.92893C14.8044 6.05357 17.3479 5 20.0001 5V5C22.6522 5 25.1958 6.05357 27.0712 7.92893C28.9465 9.8043 30.0001 12.3478 30.0001 15V21.6667L32.3001 23.9667ZM25.0001 30H15.0001C15.0001 31.3261 15.5269 32.5979 16.4645 33.5355C17.4022 34.4732 18.674 35 20.0001 35C21.3262 35 22.5979 34.4732 23.5356 33.5355C24.4733 32.5979 25.0001 31.3261 25.0001 30Z" stroke="#FEFEFE" stroke-width="2" stroke-linecap="round" stroke-linejoin="round"/>
</svg>
