<svg width="40" height="41" viewBox="0 0 40 41" fill="none" xmlns="http://www.w3.org/2000/svg">
<path d="M32.2998 24.328C32.6278 24.6564 32.8879 25.0462 33.0652 25.4752C33.2425 25.9041 33.3336 26.3638 33.3332 26.828V26.828C33.3332 27.7651 32.9609 28.6638 32.2983 29.3264C31.6357 29.9891 30.7369 30.3613 29.7998 30.3613H10.1998C9.26274 30.3613 8.36402 29.9891 7.70139 29.3264C7.03877 28.6638 6.66651 27.7651 6.66651 26.828V26.828C6.6661 26.3638 6.75714 25.9041 6.93445 25.4752C7.11175 25.0462 7.37183 24.6564 7.69984 24.328L9.99984 22.028V15.3613C9.99984 12.7092 11.0534 10.1656 12.9288 8.29026C14.8041 6.4149 17.3477 5.36133 19.9998 5.36133V5.36133C22.652 5.36133 25.1955 6.4149 27.0709 8.29026C28.9463 10.1656 29.9998 12.7092 29.9998 15.3613V22.028L32.2998 24.328ZM24.9998 30.3613H14.9998C14.9998 31.6874 15.5266 32.9592 16.4643 33.8969C17.402 34.8345 18.6738 35.3613 19.9998 35.3613C21.3259 35.3613 22.5977 34.8345 23.5354 33.8969C24.4731 32.9592 24.9998 31.6874 24.9998 30.3613Z" stroke="#FEFEFE" stroke-width="2" stroke-linecap="round" stroke-linejoin="round"/>
</svg>
