<svg width="29" height="29" viewBox="0 0 29 29" fill="none" xmlns="http://www.w3.org/2000/svg">
<path d="M14.711 25.9562C15.9943 25.9573 17.0452 24.9081 17.0463 23.6248L12.3796 23.6208C12.3785 24.9042 13.4276 25.9551 14.711 25.9562ZM21.7169 18.9621L21.7219 13.1288C21.7249 9.54711 19.8258 6.54716 16.4781 5.75099L16.4788 4.95765C16.4796 3.98932 15.6986 3.20699 14.7303 3.20617C13.762 3.20535 12.9796 3.98635 12.9788 4.95468L12.9781 5.74801C9.6408 6.53851 7.72493 9.52355 7.72188 13.1169L7.71693 18.9502L5.38161 21.2816L5.38062 22.4482L24.0473 22.4641L24.0483 21.2974L21.7169 18.9621ZM19.3826 20.1268L10.0493 20.1189L10.0552 13.1189C10.0577 10.2255 11.8213 7.87037 14.7263 7.87283C17.6313 7.8753 19.391 10.2335 19.3885 13.1268L19.3826 20.1268Z" fill="white"/>
</svg>
