<svg width="382" height="56" viewBox="0 0 382 56" fill="none" xmlns="http://www.w3.org/2000/svg">
<rect width="382" height="56" rx="15" fill="#FEFEFE"/>
<path d="M353.94 22.0799C354.291 22.0262 354.645 21.9994 355 21.9999C358.18 21.9999 361.17 24.2899 362.91 27.9999C362.644 28.5645 362.343 29.1122 362.01 29.6399C361.904 29.8038 361.849 29.9949 361.85 30.1899C361.852 30.4082 361.926 30.6197 362.059 30.7922C362.193 30.9647 362.38 31.0888 362.59 31.1455C362.801 31.2021 363.025 31.1883 363.227 31.106C363.429 31.0238 363.599 30.8776 363.71 30.6899C364.176 29.9579 364.581 29.1886 364.92 28.3899C364.974 28.2652 365.001 28.1308 365.001 27.9949C365.001 27.8591 364.974 27.7247 364.92 27.5999C362.9 22.9099 359.1 19.9999 355 19.9999C354.531 19.9976 354.062 20.0377 353.6 20.1199C353.469 20.1423 353.343 20.1902 353.23 20.2611C353.117 20.332 353.02 20.4244 352.943 20.533C352.866 20.6417 352.811 20.7644 352.781 20.8943C352.751 21.0242 352.748 21.1586 352.77 21.2899C352.792 21.4213 352.84 21.5469 352.911 21.6597C352.982 21.7725 353.074 21.8702 353.183 21.9473C353.292 22.0243 353.414 22.0792 353.544 22.1089C353.674 22.1385 353.809 22.1423 353.94 22.1199V22.0799ZM346.71 18.2899C346.617 18.1967 346.506 18.1227 346.384 18.0723C346.262 18.0218 346.132 17.9958 346 17.9958C345.868 17.9958 345.738 18.0218 345.616 18.0723C345.494 18.1227 345.383 18.1967 345.29 18.2899C345.102 18.4782 344.996 18.7336 344.996 18.9999C344.996 19.2662 345.102 19.5216 345.29 19.7099L348.39 22.7999C346.976 24.1615 345.85 25.7939 345.08 27.5999C345.025 27.7261 344.996 27.8623 344.996 27.9999C344.996 28.1376 345.025 28.2738 345.08 28.3999C347.1 33.0899 350.9 35.9999 355 35.9999C356.797 35.9875 358.552 35.4524 360.05 34.4599L363.29 37.7099C363.383 37.8037 363.494 37.8781 363.615 37.9288C363.737 37.9796 363.868 38.0057 364 38.0057C364.132 38.0057 364.263 37.9796 364.385 37.9288C364.506 37.8781 364.617 37.8037 364.71 37.7099C364.804 37.617 364.878 37.5064 364.929 37.3845C364.98 37.2627 365.006 37.132 365.006 36.9999C365.006 36.8679 364.98 36.7372 364.929 36.6154C364.878 36.4935 364.804 36.3829 364.71 36.2899L346.71 18.2899ZM353.07 27.4799L355.52 29.9299C355.351 29.9784 355.176 30.002 355 29.9999C354.47 29.9999 353.961 29.7892 353.586 29.4142C353.211 29.0391 353 28.5304 353 27.9999C352.998 27.8241 353.021 27.649 353.07 27.4799ZM355 33.9999C351.82 33.9999 348.83 31.7099 347.1 27.9999C347.746 26.5737 348.663 25.2865 349.8 24.2099L351.57 25.9999C351.154 26.7587 350.996 27.6319 351.118 28.4884C351.241 29.3449 351.638 30.1386 352.249 30.7504C352.861 31.3622 353.655 31.7592 354.511 31.8817C355.368 32.0042 356.241 31.8457 357 31.4299L358.59 32.9999C357.501 33.6408 356.263 33.9856 355 33.9999Z" fill="#1C2126"/>
<path d="M31.375 24V21.6667C31.375 20.429 30.9009 19.242 30.057 18.3668C29.2131 17.4917 28.0685 17 26.875 17C25.6815 17 24.5369 17.4917 23.693 18.3668C22.8491 19.242 22.375 20.429 22.375 21.6667V24M28.5625 30.4167C28.5625 30.7628 28.4635 31.1011 28.2781 31.3889C28.0927 31.6767 27.8291 31.901 27.5208 32.0335C27.2124 32.1659 26.8731 32.2006 26.5458 32.133C26.2184 32.0655 25.9178 31.8988 25.6818 31.6541C25.4458 31.4094 25.285 31.0975 25.2199 30.7581C25.1548 30.4186 25.1882 30.0667 25.316 29.747C25.4437 29.4272 25.66 29.1539 25.9375 28.9616C26.215 28.7693 26.5412 28.6667 26.875 28.6667C27.3226 28.6667 27.7518 28.851 28.0682 29.1792C28.3847 29.5074 28.5625 29.9525 28.5625 30.4167ZM26.875 33.3333V32.1667V33.3333ZM34.75 36.8333V25.1667C34.75 24.8572 34.6315 24.5605 34.4205 24.3417C34.2095 24.1229 33.9234 24 33.625 24H20.125C19.8266 24 19.5405 24.1229 19.3295 24.3417C19.1185 24.5605 19 24.8572 19 25.1667V36.8333C19 37.1428 19.1185 37.4395 19.3295 37.6583C19.5405 37.8771 19.8266 38 20.125 38H33.625C33.9234 38 34.2095 37.8771 34.4205 37.6583C34.6315 37.4395 34.75 37.1428 34.75 36.8333Z" stroke="#1C2126" stroke-width="2" stroke-linecap="round" stroke-linejoin="round"/>
</svg>
