<svg width="17" height="17" viewBox="0 0 17 17" fill="none" xmlns="http://www.w3.org/2000/svg">
<path fill-rule="evenodd" clip-rule="evenodd" d="M15.1035 0.403153C14.8083 0.107742 14.3298 0.107742 14.0347 0.403153C13.9599 0.478038 13.8464 0.496276 13.7476 0.458237C12.9369 0.146083 11.983 0.317238 11.3292 0.971703L3.18026 9.12856C3.02423 9.28474 3.02424 9.53779 3.18026 9.69397L6.88983 13.4071C7.04607 13.5635 7.29955 13.5635 7.45579 13.4071L15.6042 5.25081C16.258 4.59632 16.429 3.6415 16.1171 2.82995C16.0791 2.7311 16.0974 2.61761 16.1722 2.54271C16.4673 2.2473 16.4673 1.76834 16.1722 1.47293L15.1035 0.403153ZM14.6488 3.50218C14.8048 3.65836 14.8048 3.91141 14.6488 4.06759L7.45579 11.2676C7.29955 11.424 7.04607 11.424 6.88983 11.2676L5.31775 9.69397C5.16173 9.53779 5.16172 9.28474 5.31775 9.12856L12.5107 1.92859C12.667 1.77219 12.9204 1.77219 13.0767 1.92858L14.6488 3.50218Z" fill="#FF0000"/>
<path d="M1.06887 15.9973C0.770286 16.0788 0.496227 15.8049 0.577602 15.5062L1.81559 10.9632C1.89637 10.6667 2.26736 10.5683 2.48451 10.7857L5.78498 14.0898C6.00193 14.307 5.90347 14.6775 5.60732 14.7583L1.06887 15.9973Z" fill="#FF0000"/>
</svg>
