<svg width="25" height="25" viewBox="0 0 25 25" fill="none" xmlns="http://www.w3.org/2000/svg">
<g clip-path="url(#clip0_11_46255)">
<path d="M13.5225 8.04932C13.5225 5.83932 11.7325 4.04932 9.52246 4.04932C7.31246 4.04932 5.52246 5.83932 5.52246 8.04932C5.52246 10.2593 7.31246 12.0493 9.52246 12.0493C11.7325 12.0493 13.5225 10.2593 13.5225 8.04932ZM11.5225 8.04932C11.5225 9.14932 10.6225 10.0493 9.52246 10.0493C8.42246 10.0493 7.52246 9.14932 7.52246 8.04932C7.52246 6.94932 8.42246 6.04932 9.52246 6.04932C10.6225 6.04932 11.5225 6.94932 11.5225 8.04932ZM1.52246 18.0493V20.0493H17.5225V18.0493C17.5225 15.3893 12.1925 14.0493 9.52246 14.0493C6.85246 14.0493 1.52246 15.3893 1.52246 18.0493ZM3.52246 18.0493C3.72246 17.3393 6.82246 16.0493 9.52246 16.0493C12.2125 16.0493 15.3025 17.3293 15.5225 18.0493H3.52246ZM20.5225 15.0493V12.0493H23.5225V10.0493H20.5225V7.04932H18.5225V10.0493H15.5225V12.0493H18.5225V15.0493H20.5225Z" fill="#656565"/>
</g>
<defs>
<clipPath id="clip0_11_46255">
<rect width="24" height="24" fill="white" transform="translate(0.522461 0.0493164)"/>
</clipPath>
</defs>
</svg>
