<svg width="64" height="64" viewBox="0 0 64 64" fill="none" xmlns="http://www.w3.org/2000/svg">
<path d="M46.4625 29.75L24.4625 16.375C22.4875 15.275 20 16.6875 20 19V45C20 47.3 22.475 48.725 24.4625 47.625L46.4625 35C48.5125 33.8625 48.5125 30.9 46.4625 29.75ZM63 32C63 14.875 49.125 1 32 1C14.875 1 1 14.875 1 32C1 49.125 14.875 63 32 63C49.125 63 63 49.125 63 32ZM7 32C7 18.1875 18.1875 7 32 7C45.8125 7 57 18.1875 57 32C57 45.8125 45.8125 57 32 57C18.1875 57 7 45.8125 7 32Z" fill="#FEFEFE"/>
</svg>
