<svg width="23" height="25" viewBox="0 0 23 25" fill="none" xmlns="http://www.w3.org/2000/svg">
<path fill-rule="evenodd" clip-rule="evenodd" d="M11.5 12.5C19.8338 12.5 23.8572 16.4354 22.8473 23.7959C22.7527 24.4853 22.1511 25 21.4399 25H1.5601C0.84886 25 0.247335 24.4853 0.152728 23.7959C-0.857243 16.4354 3.16622 12.5 11.5 12.5ZM11.5 15.2778C5.30203 15.2778 2.61033 17.4579 2.85196 22.2222H20.148C20.3897 17.4579 17.698 15.2778 11.5 15.2778ZM11.5 0C14.6369 0 17.1799 2.48731 17.1799 5.55556C17.1799 8.6238 14.6369 11.1111 11.5 11.1111C8.36305 11.1111 5.82005 8.6238 5.82005 5.55556C5.82005 2.48731 8.36305 0 11.5 0ZM11.5 2.77778C9.93153 2.77778 8.66003 4.02143 8.66003 5.55556C8.66003 7.08968 9.93153 8.33333 11.5 8.33333C13.0685 8.33333 14.34 7.08968 14.34 5.55556C14.34 4.02143 13.0685 2.77778 11.5 2.77778Z" fill="#333333"/>
</svg>
