<svg width="25" height="25" viewBox="0 0 25 25" fill="none" xmlns="http://www.w3.org/2000/svg">
<g clip-path="url(#clip0_11_46298)">
<path d="M15.8936 14.1816H15.1036L14.8236 13.9116C15.8036 12.7716 16.3936 11.2916 16.3936 9.68164C16.3936 6.09164 13.4836 3.18164 9.89355 3.18164C6.30355 3.18164 3.39355 6.09164 3.39355 9.68164C3.39355 13.2716 6.30355 16.1816 9.89355 16.1816C11.5036 16.1816 12.9836 15.5916 14.1236 14.6116L14.3936 14.8916V15.6816L19.3936 20.6716L20.8836 19.1816L15.8936 14.1816ZM9.89355 14.1816C7.40355 14.1816 5.39355 12.1716 5.39355 9.68164C5.39355 7.19164 7.40355 5.18164 9.89355 5.18164C12.3836 5.18164 14.3936 7.19164 14.3936 9.68164C14.3936 12.1716 12.3836 14.1816 9.89355 14.1816Z" fill="#B10000"/>
</g>
<defs>
<clipPath id="clip0_11_46298">
<rect width="24" height="24" fill="white" transform="translate(0.393555 0.181641)"/>
</clipPath>
</defs>
</svg>
