<svg width="25" height="25" viewBox="0 0 25 25" fill="none" xmlns="http://www.w3.org/2000/svg">
<g clip-path="url(#clip0_11_46306)">
<path d="M19.8234 13.1616C19.8634 12.8416 19.8934 12.5216 19.8934 12.1816C19.8934 11.8416 19.8634 11.5216 19.8234 11.2016L21.9334 9.55164C22.1234 9.40164 22.1734 9.13164 22.0534 8.91164L20.0534 5.45164C19.9634 5.29164 19.7934 5.20164 19.6134 5.20164C19.5534 5.20164 19.4934 5.21164 19.4434 5.23164L16.9534 6.23164C16.4334 5.83164 15.8734 5.50164 15.2634 5.25164L14.8834 2.60164C14.8534 2.36164 14.6434 2.18164 14.3934 2.18164H10.3934C10.1434 2.18164 9.93339 2.36164 9.90339 2.60164L9.52339 5.25164C8.91339 5.50164 8.35339 5.84164 7.83339 6.23164L5.34339 5.23164C5.28339 5.21164 5.22339 5.20164 5.16339 5.20164C4.99339 5.20164 4.82339 5.29164 4.73339 5.45164L2.73339 8.91164C2.60339 9.13164 2.66339 9.40164 2.85339 9.55164L4.96339 11.2016C4.92339 11.5216 4.89339 11.8516 4.89339 12.1816C4.89339 12.5116 4.92339 12.8416 4.96339 13.1616L2.85339 14.8116C2.66339 14.9616 2.61339 15.2316 2.73339 15.4516L4.73339 18.9116C4.82339 19.0716 4.99339 19.1616 5.17339 19.1616C5.23339 19.1616 5.29339 19.1516 5.34339 19.1316L7.83339 18.1316C8.35339 18.5316 8.91339 18.8616 9.52339 19.1116L9.90339 21.7616C9.93339 22.0016 10.1434 22.1816 10.3934 22.1816H14.3934C14.6434 22.1816 14.8534 22.0016 14.8834 21.7616L15.2634 19.1116C15.8734 18.8616 16.4334 18.5216 16.9534 18.1316L19.4434 19.1316C19.5034 19.1516 19.5634 19.1616 19.6234 19.1616C19.7934 19.1616 19.9634 19.0716 20.0534 18.9116L22.0534 15.4516C22.1734 15.2316 22.1234 14.9616 21.9334 14.8116L19.8234 13.1616ZM17.8434 11.4516C17.8834 11.7616 17.8934 11.9716 17.8934 12.1816C17.8934 12.3916 17.8734 12.6116 17.8434 12.9116L17.7034 14.0416L18.5934 14.7416L19.6734 15.5816L18.9734 16.7916L17.7034 16.2816L16.6634 15.8616L15.7634 16.5416C15.3334 16.8616 14.9234 17.1016 14.5134 17.2716L13.4534 17.7016L13.2934 18.8316L13.0934 20.1816H11.6934L11.5034 18.8316L11.3434 17.7016L10.2834 17.2716C9.85339 17.0916 9.45339 16.8616 9.05339 16.5616L8.14339 15.8616L7.08339 16.2916L5.81339 16.8016L5.11339 15.5916L6.19339 14.7516L7.08339 14.0516L6.94339 12.9216C6.91339 12.6116 6.89339 12.3816 6.89339 12.1816C6.89339 11.9816 6.91339 11.7516 6.94339 11.4516L7.08339 10.3216L6.19339 9.62164L5.11339 8.78164L5.81339 7.57164L7.08339 8.08164L8.12339 8.50164L9.02339 7.82164C9.45339 7.50164 9.86339 7.26164 10.2734 7.09164L11.3334 6.66164L11.4934 5.53164L11.6934 4.18164H13.0834L13.2734 5.53164L13.4334 6.66164L14.4934 7.09164C14.9234 7.27164 15.3234 7.50164 15.7234 7.80164L16.6334 8.50164L17.6934 8.07164L18.9634 7.56164L19.6634 8.77164L18.5934 9.62164L17.7034 10.3216L17.8434 11.4516ZM12.3934 8.18164C10.1834 8.18164 8.39339 9.97164 8.39339 12.1816C8.39339 14.3916 10.1834 16.1816 12.3934 16.1816C14.6034 16.1816 16.3934 14.3916 16.3934 12.1816C16.3934 9.97164 14.6034 8.18164 12.3934 8.18164ZM12.3934 14.1816C11.2934 14.1816 10.3934 13.2816 10.3934 12.1816C10.3934 11.0816 11.2934 10.1816 12.3934 10.1816C13.4934 10.1816 14.3934 11.0816 14.3934 12.1816C14.3934 13.2816 13.4934 14.1816 12.3934 14.1816Z" fill="#B10000"/>
</g>
<defs>
<clipPath id="clip0_11_46306">
<rect width="24" height="24" fill="white" transform="translate(0.393555 0.181641)"/>
</clipPath>
</defs>
</svg>
