<?xml version="1.0" standalone="no"?>
<!DOCTYPE svg PUBLIC "-//W3C//DTD SVG 20010904//EN"
 "http://www.w3.org/TR/2001/REC-SVG-20010904/DTD/svg10.dtd">
<svg version="1.0" xmlns="http://www.w3.org/2000/svg"
 width="512.000000pt" height="512.000000pt" viewBox="0 0 512.000000 512.000000"
 preserveAspectRatio="xMidYMid meet">

<g transform="translate(0.000000,512.000000) scale(0.100000,-0.100000)"
fill="#000000" stroke="none">
<path d="M2453 5006 c-360 -88 -480 -536 -212 -791 264 -252 700 -113 775 247
68 328 -237 623 -563 544z"/>
<path d="M2409 3966 c-164 -58 -281 -197 -310 -370 -39 -229 115 -460 346
-521 265 -69 533 110 576 384 36 232 -124 468 -352 520 -78 18 -187 13 -260
-13z"/>
<path d="M2062 3959 c-59 -12 -189 -105 -272 -196 -64 -69 -151 -200 -187
-280 -26 -60 -73 -190 -73 -205 0 -4 76 -8 170 -8 l169 0 42 83 c22 45 52 96
65 112 l24 30 0 -112 0 -113 36 0 c31 0 35 3 29 18 -42 94 -49 131 -49 237 0
94 3 121 26 182 27 77 98 184 148 226 16 14 30 28 30 31 0 7 -117 3 -158 -5z"/>
<path d="M2900 3965 c0 -3 16 -19 35 -36 49 -44 119 -153 146 -229 19 -53 23
-86 23 -175 0 -106 -7 -142 -49 -237 -6 -15 -2 -18 29 -18 l36 0 0 113 0 112
20 -25 c11 -14 40 -64 65 -112 l46 -88 169 0 c94 0 170 4 170 8 0 5 -11 40
-24 78 -88 257 -245 460 -447 577 -36 21 -63 28 -132 32 -48 3 -87 3 -87 0z"/>
<path d="M282 3588 c-7 -7 -12 -40 -12 -80 l0 -68 -48 0 c-26 0 -53 -5 -60
-12 -8 -8 -12 -50 -12 -125 l0 -113 -75 0 -75 0 0 -50 0 -50 75 0 74 0 3 -117
3 -118 58 -3 57 -3 0 -64 c0 -97 -2 -95 101 -95 77 0 90 2 99 19 6 12 10 95
10 200 l0 181 275 0 c205 0 275 -3 275 -12 0 -37 230 -426 335 -568 142 -189
251 -251 363 -204 58 24 99 71 133 153 36 87 89 178 119 206 l20 18 0 -410 0
-409 -272 -38 c-150 -20 -294 -44 -320 -52 -54 -18 -116 -73 -142 -129 -13
-28 -43 -217 -103 -664 -95 -699 -95 -688 -30 -773 123 -161 385 -115 442 77
8 28 44 268 80 534 35 266 67 486 69 489 3 3 177 29 387 58 210 29 397 58 415
64 24 8 43 8 71 0 21 -6 208 -35 415 -64 208 -29 380 -55 383 -58 3 -3 35
-223 70 -489 36 -266 72 -506 80 -534 19 -66 63 -117 127 -149 145 -72 323 10
358 166 11 48 4 109 -73 679 -60 447 -90 636 -103 664 -25 54 -86 111 -138
128 -24 8 -168 32 -320 53 l-276 38 0 410 0 409 20 -18 c30 -28 83 -119 119
-206 34 -82 75 -129 133 -153 112 -47 221 15 363 204 105 142 335 531 335 568
0 9 70 12 275 12 l275 0 0 -181 c0 -105 4 -188 10 -200 9 -17 22 -19 99 -19
103 0 101 -2 101 95 l0 64 58 3 57 3 3 118 3 117 74 0 75 0 0 50 0 50 -75 0
-75 0 0 113 c0 75 -4 117 -12 125 -7 7 -34 12 -60 12 l-48 0 0 68 c0 40 -5 73
-12 80 -19 19 -163 16 -182 -4 -13 -13 -16 -46 -16 -205 l0 -189 -276 0 -277
0 -42 39 c-73 68 -157 68 -230 0 l-42 -39 -413 0 -413 0 -49 -46 c-103 -96
-268 -146 -410 -124 -93 14 -203 65 -266 124 l-49 46 -413 0 -413 0 -42 39
c-26 24 -58 42 -79 46 -58 11 -104 -3 -151 -46 l-42 -39 -277 0 -276 0 0 189
c0 159 -3 192 -16 205 -19 20 -163 23 -182 4z m1599 -559 c-87 -65 -169 -155
-223 -243 -18 -31 -36 -56 -39 -56 -11 0 -219 334 -219 352 0 4 126 8 281 8
l280 0 -80 -61z m1839 55 c0 -19 -207 -354 -218 -354 -4 0 -22 25 -40 56 -54
88 -136 178 -223 243 l-80 61 280 0 c155 0 281 -3 281 -6z"/>
<path d="M1540 3006 c0 -3 16 -32 37 -66 l36 -62 53 59 c29 32 53 61 54 66 0
4 -40 7 -90 7 -49 0 -90 -2 -90 -4z"/>
<path d="M3435 2958 c27 -29 54 -59 60 -66 10 -11 19 -1 48 48 21 34 37 63 37
66 0 2 -43 4 -96 4 l-97 0 48 -52z"/>
<path d="M735 2973 c32 -75 64 -95 191 -118 49 -8 99 -18 112 -21 22 -4 21 1
-25 86 l-48 90 -123 0 -122 0 15 -37z"/>
<path d="M4107 2920 c-46 -85 -47 -90 -25 -86 13 3 63 13 112 21 127 23 159
43 191 118 l15 37 -122 0 -123 0 -48 -90z"/>
<path d="M2529 1346 c-5 -5 -700 -106 -728 -106 -5 0 -12 -30 -16 -67 -4 -36
-9 -72 -12 -80 -4 -11 133 -13 784 -13 l789 0 -9 78 c-5 42 -10 78 -11 79 -1
1 -166 25 -366 54 -201 28 -379 54 -395 56 -17 3 -33 2 -36 -1z"/>
<path d="M1856 978 c-9 -41 -57 -570 -57 -626 0 -68 37 -149 89 -192 38 -31
115 -60 162 -60 50 0 126 30 167 65 76 64 81 87 119 463 19 185 34 345 34 355
0 16 -19 17 -255 17 l-255 0 -4 -22z"/>
<path d="M2750 983 c0 -10 15 -170 34 -355 38 -376 43 -399 119 -463 41 -36
117 -65 167 -65 15 0 48 6 73 14 107 32 177 129 177 244 0 62 -46 574 -56 620
l-4 22 -255 0 c-236 0 -255 -1 -255 -17z"/>
</g>
</svg>
