<svg width="180" height="174" viewBox="0 0 180 174" fill="none" xmlns="http://www.w3.org/2000/svg">
<path d="M90 0L56.07 21.2107H27V39.186L8.73 50.78C3.51 53.9256 0 59.5878 0 66.1488V156.025C0 166.001 8.1 174 18 174H162C171.99 174 180 166.001 180 156.025V66.1488C180 59.5878 176.49 53.9256 171.27 50.78L153 39.186V21.2107H123.93L90 0ZM45 39.186H135V83.0454L90 111.087L45 83.0454V39.186ZM54 48.1736V61.655H126V48.1736H54ZM27 60.5764V71.811L18 66.1488L27 60.5764ZM153 60.5764L162 66.1488L153 71.811V60.5764ZM54 70.6426V84.124H126V70.6426H54Z" fill="#B10000"/>
</svg>
