<svg width="162" height="184" viewBox="0 0 162 184" fill="none" xmlns="http://www.w3.org/2000/svg">
<path d="M131.351 105.143C134.329 105.143 137.218 105.493 140.108 105.931V78.8571C140.108 69.219 132.315 61.3333 122.595 61.3333H113.838V43.8095C113.838 19.6267 94.2227 0 70.0541 0C45.8854 0 26.2703 19.6267 26.2703 43.8095V61.3333H17.5135C7.88108 61.3333 0 69.1314 0 78.8571V166.476C0 176.202 7.79351 184 17.5135 184H85.9038C81.4378 176.29 78.8108 167.352 78.8108 157.714C78.8108 128.712 102.366 105.143 131.351 105.143ZM43.7838 43.8095C43.7838 29.2648 55.5178 17.5238 70.0541 17.5238C84.5903 17.5238 96.3243 29.2648 96.3243 43.8095V61.3333H43.7838V43.8095ZM70.0541 140.19C60.4216 140.19 52.5405 132.392 52.5405 122.667C52.5405 112.941 60.4216 105.143 70.0541 105.143C79.6865 105.143 87.5676 112.941 87.5676 122.667C87.5676 132.392 79.7741 140.19 70.0541 140.19ZM162 142.381L120.405 184L96.3243 157.714L106.482 147.55L120.405 161.482L151.842 130.027L162 142.381Z" fill="#B10000"/>
</svg>
