<svg width="24" height="17" viewBox="0 0 24 17" fill="none" xmlns="http://www.w3.org/2000/svg">
<g clip-path="url(#clip0_11_45332)">
<path d="M23.809 5.14226C17.1651 -0.29874 6.83197 -0.296748 0.190721 5.14226C-0.059029 5.34679 -0.063904 5.6931 0.177596 5.90526L1.4616 7.03317C1.69185 7.23571 2.06235 7.24003 2.3016 7.04579C7.7736 2.6072 16.2253 2.6062 21.6985 7.04579C21.9377 7.24003 22.3082 7.23538 22.5385 7.03317L23.8225 5.90526C24.0636 5.6931 24.0587 5.34679 23.809 5.14226ZM11.9998 11.6873C10.6742 11.6873 9.59985 12.6385 9.59985 13.8123C9.59985 14.986 10.6742 15.9373 11.9998 15.9373C13.3255 15.9373 14.3998 14.986 14.3998 13.8123C14.3998 12.6385 13.3255 11.6873 11.9998 11.6873ZM19.6 8.91181C15.2777 5.52741 8.7171 5.53106 4.39972 8.91181C4.14097 9.11434 4.13272 9.46597 4.37835 9.68046L5.66985 10.809C5.89485 11.0056 6.2571 11.0189 6.49672 10.8356C9.64485 8.42604 14.362 8.43136 17.5026 10.8356C17.7422 11.0189 18.1045 11.0059 18.3295 10.809L19.621 9.68046C19.867 9.46597 19.8583 9.11401 19.6 8.91181Z" fill="#FEFEFE"/>
</g>
<defs>
<clipPath id="clip0_11_45332">
<rect width="24" height="17" fill="white"/>
</clipPath>
</defs>
</svg>
