<svg width="150" height="262" viewBox="0 0 150 262" fill="none" xmlns="http://www.w3.org/2000/svg">
<g clip-path="url(#clip0_11_45354)">
<path d="M85.045 233.618L76.9045 233.618L79.5285 252.027L85.044 252.027L85.045 233.618Z" fill="white"/>
<path d="M77.6931 252.456C76.5928 253.469 67.9582 257.297 68.3965 259.069C68.3965 259.645 68.6763 260.166 69.1285 260.533C69.5434 260.88 70.1076 261.09 70.7277 261.09H81.1106L81.4323 260.513L82.901 257.891L83.4698 260.513L83.5956 261.09H87.512L87.456 260.509L86.4117 249.673L85.0456 249.6L79.1432 249.298L77.6931 249.221L77.6931 252.456Z" fill="#1C2126"/>
<path d="M50.546 186.677L45.3046 192.067L63.2724 202.181L66.8237 198.53L50.546 186.677Z" fill="white"/>
<path d="M62.4708 203.673C62.6579 205.054 60.4841 213.236 62.3324 214.086C62.8425 214.457 63.4828 214.607 64.0986 214.544C64.6726 214.492 65.2213 214.254 65.6205 213.843L72.3054 206.969L72.0024 206.385L70.6292 203.724L73.3142 205.036L73.9054 205.324L76.4269 202.731L75.8771 202.394L65.6226 196.109L64.6789 196.966L60.6111 200.68L59.6097 201.59L62.4708 203.673Z" fill="#1C2126"/>
<path d="M79.2476 119.237L42.1682 105.564C50.1797 96.6863 46.6509 82.5107 46.7408 67.749L84.2062 68.7025C83.5561 80.1686 80.1319 91.9524 90.5141 105.564L93.5726 113.04L79.2476 119.237Z" fill="white"/>
<path d="M42.1682 105.564L42.3331 127.819L68.6839 143.512L75.3909 234.133L86.4101 234.609L90.2669 206.958L101.565 153.008C101.565 153.008 100.735 149.749 102.236 149.804C103.737 149.859 101.286 146.412 102.95 146.395C103.47 146.389 103.879 145.365 104.196 143.958C105.213 139.443 104.585 134.766 102.539 130.52L90.5141 105.564C74.7766 112.381 58.6239 111.705 42.1682 105.564Z" fill="#1C2126"/>
<path d="M50.9315 123.388L72.4321 140.624C72.4321 140.624 48.9446 149.272 51.088 150.516C53.2315 151.76 48.3854 151.346 48.3854 151.346L33.7346 161.013L25.3309 164.568L55.4613 186.863L43.6518 195.376L8.27948 171.991C3.27208 170.22 0 166.004 0 161.323C0 157.169 2.58415 152.86 6.76359 150.815L42.3331 127.819L50.9315 123.388Z" fill="#1C2126"/>
<path d="M45.5214 88.3621C43.7511 87.9986 45.0878 87.7722 45.4331 87.7298C45.7783 87.6875 45.6388 86.342 45.3045 86.8097C44.9703 87.2774 42.1917 64.526 42.1917 64.526C40.1366 59.9579 33.9843 50.9007 39.0272 48.6792L56.658 41.5281L73.1869 42.0048L90.8177 48.2025C93.9828 50.9118 90.7452 57.9741 89.0072 62.4715L87.4157 72.1243C87.4157 72.1243 84.2062 83.4815 85.4276 84.1827C86.649 84.884 85.2716 85.1287 85.2716 85.1287C85.2716 85.1287 83.1042 84.435 85.0532 86.4531C83.268 89.158 88.9378 105.3 90.9952 104.921C80.4868 114.039 59.3491 111.121 43.6124 102.061C43.6124 102.061 47.2917 88.7257 45.5214 88.3621Z" fill="#B10000"/>
<path d="M102.742 74.7231L78.0948 76.7357L78.3765 84.2317L109.513 81.7217C113.265 81.4193 115.918 78.4061 115.251 75.197C113.912 68.753 100.537 54.2833 98.2965 51.3571C94.8541 46.8605 90.1853 61.5406 90.1853 61.5406L102.742 74.7231Z" fill="white"/>
<path d="M75.1382 84.9959C78.4854 84.9959 81.1988 82.648 81.1988 79.7517C81.1988 76.8555 78.4854 74.5076 75.1382 74.5076C71.7911 74.5076 69.0776 76.8555 69.0776 79.7517C69.0776 82.648 71.7911 84.9959 75.1382 84.9959Z" fill="white"/>
<path d="M45.3043 47.5189C45.3043 47.5189 45.4217 59.382 39.8809 56.911C36.2753 55.303 10.7771 50.502 5.97362 45.4431C3.58151 42.9238 4.19756 39.1735 7.30169 37.3251L33.0629 21.9851L37.5366 28.4088L17.1593 40.574L45.3043 47.5189Z" fill="white"/>
<path d="M38.4161 29.7718C41.7632 29.7718 44.4767 27.4239 44.4767 24.5276C44.4767 21.6313 41.7632 19.2834 38.4161 19.2834C35.0689 19.2834 32.3555 21.6313 32.3555 24.5276C32.3555 27.4239 35.0689 29.7718 38.4161 29.7718Z" fill="white"/>
<path d="M24.9085 41.5281L48.0433 47.3177L43.1676 60.2303C40.4889 61.0837 37.5269 60.3348 35.799 58.368L23.2296 53.8283L24.9085 41.5281Z" fill="#B10000"/>
<path d="M85.906 47.3176L89.9833 47.6661C92.6638 46.8127 95.6244 47.562 97.3519 49.5284L109.707 63.2015L93.5726 68.7024L81.2001 55.4301L85.906 47.3176Z" fill="#B10000"/>
<path d="M67.2154 39.4987C61.9885 37.8269 51.3971 43.4777 52.312 37.9028C53.0382 33.4592 48.9896 56.8271 47.9851 56.5567C46.2204 56.0797 51.1406 24.6767 50.1053 22.6527C49.9724 22.3909 49.8178 22.1147 49.6355 21.8268C49.447 21.5185 49.2337 21.1957 48.9926 20.8555C48.9865 20.8467 48.9772 20.838 48.971 20.8293C48.1365 12.9105 57.0838 6.40215 68.4295 7.21642H68.4387C69.5915 7.29495 70.7814 7.46071 71.9775 7.69918H77.6148C78.2236 7.69918 78.8201 7.73116 79.4104 7.78933C81.682 8.01906 83.7991 8.69083 85.6565 9.69705C88.1537 11.0522 89.7083 13.4601 89.9525 15.8506C90.1441 17.6798 89.5661 19.5003 88.0641 20.8293L88.0456 20.8322C88.2434 21.5679 88.3824 22.3212 88.4659 23.0889C88.5308 23.6414 88.5586 24.2027 88.5586 24.7669C88.5586 24.8832 88.5586 25.0024 88.5493 25.1158C88.3979 32.1128 83.4838 38.0773 76.5547 40.5783C76.496 40.5996 76.4338 40.6212 76.3686 40.6431C74.5134 41.2661 73.4282 41.0782 71.5061 40.6729C70.0267 40.3609 68.6054 39.9433 67.2154 39.4987Z" fill="#1C2126"/>
<path d="M67.0657 37.3225C74.4358 37.3225 80.4104 32.1528 80.4104 25.7755C80.4104 19.3983 74.4358 14.2285 67.0657 14.2285C59.6957 14.2285 53.7211 19.3983 53.7211 25.7755C53.7211 32.1528 59.6957 37.3225 67.0657 37.3225Z" fill="white"/>
<path d="M55.4613 20.8926C55.4613 20.6894 55.4675 20.4915 55.483 20.2882C55.8384 14.4235 61.3799 11.8723 68.275 11.6343C68.4573 11.6262 68.6397 11.6209 68.822 11.6209H73.7732C73.7732 11.1609 73.9494 10.7384 74.2553 10.4014C74.4346 10.1928 74.6633 10.019 74.9198 9.88795C74.926 9.88795 74.926 9.88528 74.9291 9.88528C75.2814 9.70611 75.6863 9.60181 76.122 9.60181C76.1901 9.60181 76.2642 9.60716 76.3415 9.60983C77.4047 9.6954 78.4431 9.83447 79.4661 10.019C79.9668 10.1099 80.4674 10.2142 80.9558 10.3292C80.996 10.3372 81.0299 10.3453 81.0701 10.3533C82.6834 10.7384 84.238 11.2411 85.7122 11.8616C87.3595 12.7227 88.7966 13.8405 89.9525 15.1509C90.1441 16.8331 89.5662 18.5072 88.0642 19.7293L88.0456 19.732C88.2434 20.4086 88.3825 21.1012 88.4659 21.8072C88.5308 22.3153 88.5587 22.8315 88.5587 23.3503C88.5587 23.4572 88.5587 23.5669 88.5494 23.6712C88.3979 30.1055 82.4207 54.5243 75.4916 56.8242C75.8964 55.2758 77.315 35.1332 77.5221 34.5662C80.6992 25.9363 78.3504 23.5214 73.7732 20.8926H69.3289C68.4635 19.7694 68.037 18.3948 68.1513 17.047C67.5363 18.2638 67.1963 19.5742 67.1345 20.8926C64.9278 23.4118 61.2902 23.2166 56.8243 21.4649C56.5894 21.374 56.3576 21.2777 56.1258 21.1814C55.9033 21.0878 55.6838 20.9942 55.4613 20.8926Z" fill="#1C2126"/>
<path d="M84.7334 21.3568C89.5889 21.3568 93.525 17.9509 93.525 13.7496C93.525 9.54821 89.5889 6.14233 84.7334 6.14233C79.878 6.14233 75.9419 9.54821 75.9419 13.7496C75.9419 17.9509 79.878 21.3568 84.7334 21.3568Z" fill="#1C2126"/>
<path d="M79.0946 1.02361C82.8515 3.68508 88.5728 2.50909 89.7353 6.58826C90.8978 10.6674 88.0186 14.7897 83.3044 15.7956C78.5902 16.8015 73.6624 14.3425 72.6636 10.2309C71.3167 4.68623 73.7799 -2.74142 79.0946 1.02361Z" fill="#1C2126"/>
</g>
<defs>
<clipPath id="clip0_11_45354">
<rect width="150" height="262" fill="white"/>
</clipPath>
</defs>
</svg>
